{"glyphs":{":":{"x_min":0,"x_max":230,"ha":230,"o":"m 45 0 q 37 0 30 4 q 22 7 18 13 q 13 19 10 27 q 10 29 10 31 q 9 33 9 36 l 10 43 q 11 51 15 58 q 20 66 26 72 q 32 77 40 80 q 48 83 56 83 q 64 83 72 80 q 79 77 83 71 q 88 64 91 57 l 92 47 q 91 35 86 25 q 82 18 75 12 q 69 6 61 3 q 53 0 45 0 z m 119 317 q 111 317 104 321 q 96 324 91 330 q 86 336 84 344 q 84 346 83 348 q 83 350 83 353 l 83 360 q 85 368 89 375 q 93 383 100 388 q 106 394 114 396 q 122 400 129 400 q 138 400 145 397 q 152 394 157 387 q 162 381 165 374 l 166 364 q 165 352 160 342 q 155 335 149 329 q 143 323 135 320 q 127 317 119 317 z"},"$":{"x_min":0,"x_max":508,"ha":508,"o":"m 121 -52 q 116 -52 111 -51 q 106 -49 104 -44 q 101 -42 101 -37 q 101 -34 103 -30 l 103 -29 q 110 -17 124 4 q 138 24 152 44 q 146 43 137 43 l 122 43 l 105 43 q 90 43 78 47 q 54 54 38 72 l 37 74 q 19 96 19 126 q 19 134 20 143 q 26 183 70 223 q 101 247 122 247 q 130 247 136 244 q 151 238 157 221 q 161 211 161 199 q 161 193 160 187 q 157 165 144 145 q 131 126 108 118 l 106 118 q 104 118 102 119 q 100 121 99 123 l 99 125 q 99 129 104 132 q 123 138 133 154 q 143 170 146 188 q 146 193 146 198 q 146 208 143 216 q 139 227 130 231 q 126 233 122 233 q 107 233 84 216 q 61 197 49 177 q 37 158 34 140 q 33 133 33 126 q 33 101 48 83 q 61 66 82 61 q 92 58 103 58 q 113 58 123 61 q 192 79 221 126 q 238 152 245 183 q 252 213 252 246 l 251 260 q 250 302 245 347 l 245 350 q 242 379 239 409 q 237 438 237 466 q 237 496 241 522 q 242 534 246 546 q 266 603 312 635 l 313 635 q 348 658 386 661 q 398 693 412 723 q 417 732 426 736 q 435 740 442 740 q 448 740 452 738 q 457 736 459 732 q 461 729 461 724 q 461 721 460 717 l 459 717 q 454 707 444 691 q 433 675 421 659 l 434 655 q 451 650 463 640 q 464 638 466 637 q 467 636 469 634 q 483 621 490 600 q 493 592 494 583 l 494 573 l 494 562 q 492 531 478 509 q 463 487 438 484 l 434 484 q 422 484 414 489 q 405 494 398 502 q 393 510 390 520 q 389 525 389 530 q 389 535 389 539 q 393 555 413 563 l 415 563 q 420 563 422 558 l 422 556 q 422 551 417 549 q 406 544 403 535 q 403 533 403 530 q 403 526 404 523 q 405 517 410 511 q 419 499 435 499 l 437 499 q 456 501 465 517 q 479 536 479 563 l 480 572 l 479 581 q 479 583 479 585 q 478 591 477 596 q 472 612 459 624 l 456 628 l 448 629 l 442 630 q 418 630 396 607 q 370 581 357 546 q 352 532 351 520 q 347 495 347 467 q 347 415 354 357 q 354 354 354 351 q 355 343 356 335 q 360 297 362 260 l 362 246 q 361 213 350 179 q 338 145 312 115 q 272 66 185 48 q 182 39 177 29 q 165 -4 151 -36 q 145 -44 137 -48 q 129 -52 121 -52 z"},"?":{"x_min":0,"x_max":504,"ha":504,"o":"m 148 125 l 144 125 q 106 125 80 144 q 59 159 59 183 q 59 197 69 215 q 99 266 216 326 q 290 364 337 411 q 385 458 408 507 q 427 550 427 588 q 427 640 394 674 q 360 708 291 714 l 277 714 q 218 714 179 689 q 140 664 123 624 q 106 587 106 549 q 106 525 113 506 q 125 468 152 467 q 159 467 160 461 q 160 453 153 453 q 114 454 99 502 q 92 523 92 548 q 92 591 110 629 q 128 674 173 703 q 213 729 276 729 l 292 728 q 399 723 457 671 q 501 628 501 570 q 501 536 485 500 q 446 416 319 350 q 266 322 230 304 q 152 265 132 252 q 113 241 93 219 q 74 199 74 180 q 74 167 88 155 q 112 140 146 140 l 148 140 q 154 140 155 133 q 155 130 153 128 q 151 125 148 125 z m 69 0 q 52 0 41 13 q 33 23 33 35 q 33 47 39 58 q 49 75 64 80 q 71 83 80 83 q 97 83 107 70 q 116 61 116 46 l 115 41 q 112 23 99 12 q 85 0 69 0 z"},"<":{"x_min":0,"x_max":495,"ha":495,"o":"m 321 69 q 319 69 71 221 q 68 223 68 227 q 68 232 73 235 q 385 385 389 386 q 394 386 396 379 q 396 375 392 373 l 114 227 l 323 83 q 328 80 328 76 l 327 72 q 324 69 321 69 z"},"'":{"x_min":0,"x_max":328,"ha":328,"o":"m 89 425 q 84 427 84 433 l 84 434 q 93 468 117 534 q 144 603 173 669 l 174 670 q 185 686 200 692 q 215 699 229 699 q 239 699 247 696 q 254 693 258 688 q 262 682 262 675 q 262 670 259 664 l 259 663 q 233 618 146 496 q 126 469 112 454 q 102 441 100 438 l 101 438 q 102 436 102 434 q 102 430 100 428 q 97 426 95 425 q 92 425 89 425 z"},"=":{"x_min":0,"x_max":495,"ha":495,"o":"m 382 256 l 113 256 q 110 257 110 261 q 110 266 112 271 q 114 276 116 281 q 119 285 122 285 l 391 285 q 394 284 394 280 q 394 276 392 270 q 390 265 387 260 q 385 256 382 256 z m 356 171 l 87 171 q 84 172 84 176 q 84 180 86 186 q 88 191 91 196 q 93 200 96 200 l 365 200 q 368 199 368 195 q 368 190 366 185 q 364 180 362 176 q 359 171 356 171 z"},"a":{"x_min":0,"x_max":422,"ha":422,"o":"m 37 21 q 42 21 47 24 q 52 27 57 32 q 60 33 62 35 q 85 52 98 69 q 110 85 120 105 q 125 113 129 122 l 229 297 q 216 310 201 310 q 186 310 171 301 q 156 292 142 281 q 129 269 120 259 q 77 213 51 154 q 24 95 24 54 q 25 21 37 21 z m 168 0 q 140 0 127 20 q 114 40 114 67 q 86 33 62 18 q 39 3 19 3 q -13 4 -28 29 q -44 53 -44 92 q -44 127 -31 168 q -18 209 10 245 q 38 280 81 302 q 125 325 178 327 q 199 327 214 322 q 229 317 237 310 l 242 317 q 244 321 248 321 l 320 321 q 323 321 326 319 q 328 317 328 313 l 327 310 l 182 55 q 177 46 177 39 l 177 37 q 178 33 179 31 q 181 28 188 28 q 215 31 251 58 q 287 86 322 121 q 356 156 379 181 q 387 190 393 196 l 426 232 q 429 234 432 234 q 435 234 437 232 q 439 230 439 227 q 439 225 437 222 l 403 187 q 397 180 388 170 q 368 148 340 120 q 312 91 281 64 q 250 37 220 18 q 191 0 168 0 z"},"L":{"x_min":0,"x_max":976,"ha":976,"o":"m 610 361 q 698 393 769 460 q 839 528 882 597 q 925 667 925 694 q 925 706 916 706 q 899 706 849 657 q 799 608 709 490 l 690 465 q 652 415 610 361 z m 91 17 q 121 17 151 27 q 181 37 211 54 q 185 59 149 64 q 113 69 81 69 l 74 69 q 52 69 36 64 q 21 59 18 48 l 18 44 l 18 41 q 19 39 20 37 q 21 36 22 34 q 27 29 38 26 q 64 17 91 17 z m 577 -9 q 542 -9 502 -5 q 428 4 349 25 q 312 34 273 42 q 234 21 195 10 q 155 -1 115 -1 q 75 -1 35 11 q 20 16 12 24 q 6 30 4 37 l 4 38 l 3 43 q 3 48 4 52 q 9 74 31 86 q 53 97 82 101 q 113 105 143 105 q 186 105 207 101 q 228 99 248 95 l 266 92 q 321 137 376 198 q 430 259 483 327 l 477 327 q 440 327 406 333 q 336 348 287 384 q 252 410 232 445 q 212 480 212 522 q 212 543 217 564 q 231 615 267 661 q 303 707 349 737 q 388 763 425 771 q 438 773 450 773 q 474 773 493 762 q 519 746 529 707 l 529 706 q 529 701 523 698 l 521 698 q 519 698 517 700 q 515 701 515 704 q 506 737 485 750 q 470 759 450 759 q 439 759 428 756 q 393 749 356 725 q 313 696 278 652 q 244 609 231 561 q 227 541 227 522 q 227 484 245 452 q 263 420 295 396 q 343 361 409 348 q 446 341 486 341 l 495 341 l 545 405 q 592 467 638 523 q 684 580 727 624 q 771 668 813 695 q 854 721 894 721 l 907 720 q 926 717 935 707 q 943 696 943 680 q 943 635 891 563 q 839 491 760 428 q 681 365 594 341 q 535 267 470 199 q 405 131 335 81 q 342 80 349 79 q 411 69 471 61 q 516 55 556 55 q 597 55 632 60 q 729 74 785 114 q 839 153 846 203 l 846 210 q 846 220 845 229 q 839 284 812 316 q 810 318 810 321 q 810 324 812 327 q 814 328 817 328 q 820 328 823 326 q 853 290 859 230 q 860 224 861 220 q 861 216 861 210 q 861 187 856 162 q 851 138 839 115 q 812 57 736 20 q 706 6 666 -1 q 626 -9 577 -9 z"},"3":{"x_min":0,"x_max":639,"ha":639,"o":"m 195 -5 q 104 -5 56 41 q 9 84 9 154 q 9 176 14 198 q 27 254 65 294 q 106 336 158 336 q 186 336 217 321 q 221 319 221 315 q 219 308 214 308 l 211 308 q 183 321 158 321 q 112 321 76 284 q 40 248 28 195 q 23 175 23 154 q 23 123 35 94 q 53 53 86 36 q 119 18 158 18 q 195 18 232 32 q 311 60 369 142 q 404 191 420 243 q 429 271 429 298 q 429 330 417 356 q 396 405 339 427 q 330 432 326 432 q 324 432 323 432 q 319 434 319 438 q 319 442 322 444 l 479 577 q 466 575 454 575 q 429 575 405 583 q 391 587 355 601 q 292 628 237 628 q 214 628 195 624 q 154 613 137 591 q 132 585 127 585 q 125 585 123 587 q 121 589 121 592 q 121 595 122 597 l 124 598 q 153 636 188 666 q 241 712 291 712 q 299 712 308 710 q 335 705 358 690 q 382 674 403 656 q 458 610 495 610 q 518 610 539 625 q 559 640 584 665 q 625 702 629 702 q 632 702 635 700 q 637 697 637 695 q 637 692 634 689 l 355 454 q 402 454 436 441 q 483 423 509 385 q 535 348 535 297 q 535 262 520 222 q 482 125 391 62 q 346 30 295 12 q 245 -5 195 -5 z"},";":{"x_min":0,"x_max":230,"ha":230,"o":"m 119 317 q 111 317 104 320 q 96 324 91 330 q 86 336 84 344 q 84 346 83 348 q 83 350 83 353 q 83 356 83 360 q 85 368 89 375 q 93 383 100 388 q 106 394 114 396 q 122 400 129 400 q 138 400 145 396 q 152 394 158 387 q 162 381 165 374 q 165 371 165 369 q 166 366 166 364 l 165 357 q 164 349 160 342 q 155 335 148 329 q 143 323 135 320 q 127 317 119 317 z m -37 -62 q -45 -62 -45 -55 q -44 -48 -37 -48 q 4 -46 32 -10 l 39 0 q 22 0 11 13 q 3 24 3 36 q 3 47 9 58 q 19 75 34 80 q 42 83 50 83 q 67 83 77 71 q 88 59 88 39 q 88 10 61 -17 q 37 -42 3 -55 q -18 -62 -37 -62 z"},"J":{"x_min":0,"x_max":921,"ha":921,"o":"m 299 -69 q 326 -69 356 -66 q 430 -58 492 -25 q 553 9 604 61 q 610 73 613 86 q 631 146 631 207 q 631 222 629 238 q 623 315 589 379 q 563 425 523 460 q 482 495 426 512 q 382 525 340 525 q 290 525 245 508 q 201 491 163 462 q 126 432 97 394 q 37 312 22 217 q 19 193 19 170 q 19 102 51 45 q 71 11 104 -14 q 138 -40 186 -54 q 234 -69 299 -69 z m 769 288 q 807 354 840 417 q 842 420 843 422 q 894 520 942 595 q 991 670 1045 702 q 884 694 793 652 q 703 609 668 550 q 641 504 640 458 l 640 452 q 640 409 658 372 q 675 334 704 311 q 733 288 767 288 z m 444 -149 q 440 -149 438 -145 q 438 -144 438 -142 q 438 -138 441 -135 q 516 -92 561 -25 l 548 -31 q 469 -62 410 -71 l 410 -72 q 384 -78 358 -80 q 327 -83 298 -83 q 231 -83 180 -68 q 130 -52 95 -25 q 60 1 39 37 q 21 67 13 101 q 4 135 4 171 q 4 194 8 219 q 23 318 86 402 q 116 442 155 473 q 194 504 240 522 q 287 540 339 540 q 383 540 430 525 q 489 507 532 471 q 575 435 602 386 q 637 319 644 240 q 645 223 645 206 q 645 146 627 85 q 702 170 761 273 q 724 276 694 301 q 664 326 645 366 q 626 406 626 453 l 626 458 q 627 508 656 558 q 682 602 736 637 q 791 673 878 695 q 965 716 1093 716 l 1098 716 q 1100 716 1103 716 q 1106 716 1110 715 q 1114 715 1115 714 q 1121 712 1121 707 l 1121 706 q 1120 704 1118 702 q 1116 700 1114 700 l 1112 700 q 1105 701 1098 701 q 1061 693 1021 624 q 980 555 933 453 q 929 444 925 436 q 900 384 873 332 q 876 334 879 337 q 881 338 883 340 q 947 392 1028 533 q 1030 537 1034 537 q 1036 537 1038 536 q 1041 534 1041 530 l 1040 526 q 958 383 892 329 q 875 314 858 303 q 826 241 789 183 q 751 126 709 79 l 709 79 q 647 19 585 -13 q 537 -97 448 -148 z"},"V":{"x_min":0,"x_max":980,"ha":980,"o":"m 786 693 q 833 696 840 706 l 841 708 q 841 711 833 714 q 825 718 815 718 q 807 718 800 714 q 792 711 788 702 z m 689 -6 q 687 -6 685 -4 q 684 -3 683 1 q 682 6 682 10 l 683 16 q 728 105 744 174 q 761 242 761 298 q 761 329 758 358 q 754 387 750 415 q 747 442 744 471 q 741 500 741 530 q 741 563 746 600 q 751 636 765 678 q 694 681 601 700 q 544 711 483 720 q 422 729 362 729 q 314 729 268 720 q 222 712 181 691 q 139 671 104 635 q 55 583 35 522 q 21 479 21 442 q 21 420 25 402 q 33 373 50 354 q 65 337 91 333 q 100 332 108 332 q 139 332 163 348 q 187 365 206 391 q 229 422 245 457 q 261 492 272 521 q 273 523 275 525 q 277 526 279 526 l 281 525 q 286 523 286 519 l 285 516 q 274 486 257 450 q 241 414 218 382 q 197 354 170 335 q 143 317 108 317 q 99 317 89 318 q 60 324 40 344 q 19 366 12 399 q 7 419 7 443 q 7 482 21 526 q 42 591 94 645 q 130 683 174 704 q 217 726 265 734 q 312 743 362 743 q 423 743 485 734 q 546 725 604 714 q 650 705 693 699 q 735 692 769 692 q 775 710 784 721 q 793 732 814 732 l 820 732 q 838 730 849 722 q 856 715 856 708 q 856 701 850 695 q 839 683 785 679 l 783 679 q 774 635 774 597 q 774 551 783 512 q 791 473 802 435 q 803 434 803 433 q 814 393 823 352 q 832 310 832 261 q 832 240 829 216 l 1195 745 q 1231 793 1266 817 q 1301 840 1332 842 l 1340 842 q 1363 842 1381 833 q 1402 822 1414 802 q 1427 781 1427 754 q 1427 735 1419 714 q 1416 709 1412 709 l 1410 710 q 1405 713 1405 717 l 1405 720 q 1413 738 1413 755 q 1413 777 1402 794 q 1392 811 1375 820 q 1359 828 1339 828 l 1333 828 q 1305 826 1273 804 q 1241 782 1207 736 l 695 -2 q 692 -6 689 -6 z"},"\"":{"x_min":0,"x_max":328,"ha":328,"o":"m 17 425 q 11 427 11 433 l 11 434 q 20 468 44 534 q 71 603 101 669 l 101 670 q 112 686 127 692 q 143 699 156 699 q 166 699 174 696 q 182 693 186 688 q 189 682 189 675 q 189 670 187 664 l 186 663 q 161 618 73 496 q 53 469 40 454 q 29 441 27 438 l 28 438 q 29 436 29 434 q 29 430 27 428 q 24 426 22 425 q 20 425 17 425 z m 141 425 q 135 427 135 433 l 135 434 q 144 468 168 534 q 195 603 225 669 l 225 670 q 236 686 251 692 q 267 699 280 699 q 290 699 298 696 q 306 693 310 688 q 313 682 313 675 q 313 670 311 664 l 310 663 q 285 618 197 496 q 177 469 164 454 q 153 441 151 438 l 152 438 q 153 436 153 434 q 153 430 151 428 q 148 426 146 425 q 144 425 141 425 z"},"7":{"x_min":0,"x_max":495,"ha":495,"o":"m 85 -4 l 13 -4 q 6 -4 5 3 q 5 4 6 6 q 6 8 101 143 q 173 245 261 366 q 364 507 447 609 l 462 628 q 430 610 398 610 q 374 610 349 618 q 324 626 298 637 q 236 664 181 664 q 157 664 139 659 q 97 649 81 626 q 80 625 78 625 q 76 621 71 621 q 69 621 67 623 q 64 625 64 628 q 64 631 69 636 q 98 674 131 703 q 183 748 231 748 q 239 748 248 747 q 274 741 298 726 q 316 714 345 691 q 373 669 390 658 q 412 644 436 644 q 471 644 506 687 l 510 692 q 515 698 517 703 q 520 708 522 712 q 524 716 529 716 q 531 716 534 714 q 537 712 537 708 l 536 705 q 471 583 352 396 q 268 262 194 150 q 121 39 91 -1 q 88 -4 85 -4 z"},"S":{"x_min":0,"x_max":791,"ha":791,"o":"m 762 508 q 773 521 799 559 q 824 597 847 640 q 871 683 871 705 q 871 713 866 717 q 861 720 856 720 q 850 720 844 716 q 837 712 833 708 q 814 691 795 644 q 773 584 762 508 z m 333 14 q 413 14 470 45 q 528 77 567 132 q 606 186 630 256 q 654 327 666 405 q 643 390 619 378 q 607 337 581 303 q 551 261 501 236 q 451 210 381 210 q 341 210 293 221 q 291 221 290 223 q 288 225 288 227 l 288 229 q 289 231 291 233 q 292 234 295 234 l 297 234 q 342 225 381 225 q 447 225 494 248 q 541 272 570 311 q 590 339 602 371 q 553 350 504 342 q 467 335 432 335 q 392 335 355 343 q 286 356 236 393 q 201 419 181 454 q 162 489 162 531 q 162 552 167 573 q 167 576 169 577 q 171 579 173 579 l 175 579 q 181 576 181 571 l 181 570 q 176 550 176 531 q 176 493 194 461 q 212 429 245 405 q 292 370 358 357 q 393 350 431 350 q 466 350 502 356 q 555 365 607 389 q 608 393 609 398 q 614 424 614 450 q 614 473 610 495 q 599 558 555 607 q 512 656 437 674 q 402 681 370 681 q 310 681 258 659 q 206 638 163 600 q 120 562 88 514 q 35 432 21 339 q 19 315 19 291 q 19 226 45 167 q 69 114 121 76 q 172 38 254 21 q 296 14 333 14 z m 366 -1 l 350 -1 q 287 -1 225 13 q 163 28 113 63 q 62 99 32 161 q 4 222 4 291 q 4 316 7 341 q 21 437 76 521 q 109 572 154 611 q 198 650 253 673 q 308 696 370 696 q 404 696 440 688 q 520 668 566 616 q 612 564 624 498 q 629 473 629 448 q 629 422 624 397 q 647 409 669 424 q 671 437 673 450 l 675 464 q 682 519 691 568 q 701 617 716 657 q 726 682 737 699 q 761 731 786 740 q 801 746 819 746 q 832 746 844 743 q 866 738 876 726 q 885 713 885 696 q 885 671 870 639 q 854 606 833 575 q 811 543 791 519 q 770 494 758 481 l 756 463 q 746 387 728 310 q 710 232 672 166 q 633 100 560 55 q 487 11 366 -1 z"},"}":{"x_min":0,"x_max":430,"ha":430,"o":"m 362 736 l 372 736 q 423 733 423 679 q 423 646 408 603 q 394 560 375 514 l 373 510 q 355 468 342 430 q 329 392 329 365 q 329 360 329 355 q 331 331 359 328 q 374 328 379 329 q 386 329 387 323 q 387 313 380 313 l 370 314 l 359 313 q 301 308 251 213 q 229 170 208 123 q 185 70 159 22 q 134 -26 102 -58 q 64 -95 15 -95 q 8 -95 8 -87 q 8 -84 10 -82 q 12 -80 15 -80 q 58 -80 88 -47 q 116 -17 136 30 q 156 77 173 129 q 194 195 220 249 q 247 303 288 322 q 276 332 275 355 q 275 383 293 424 q 311 465 337 516 q 365 569 385 614 q 404 658 404 690 q 404 717 372 722 l 367 722 l 367 722 l 362 722 q 355 722 355 729 q 355 735 362 736 z"},"Z":{"x_min":0,"x_max":1000,"ha":1000,"o":"m 644 229 q 652 229 671 241 q 690 253 721 282 l 713 283 l 710 283 q 676 280 656 263 q 637 247 637 236 q 637 230 644 229 z m 363 -255 l 351 -255 q 326 -255 299 -253 q 272 -251 249 -246 q 181 -232 133 -202 q 71 -161 41 -101 q 11 -41 10 28 l 10 37 q 10 152 77 263 q 96 294 118 318 q 163 370 213 399 q 264 428 315 438 q 344 444 372 444 q 441 444 493 412 q 503 405 513 397 q 536 376 547 352 q 558 327 558 300 q 558 262 539 222 q 510 163 456 115 q 401 67 335 46 q 302 35 269 35 q 229 35 193 53 q 156 72 128 113 q 127 115 127 117 q 127 121 130 124 q 132 125 134 125 q 138 125 141 121 q 166 83 199 67 q 232 50 270 50 q 300 50 331 60 q 394 80 446 126 q 499 172 526 228 q 543 265 543 299 q 543 324 533 346 q 524 368 503 386 q 495 393 485 399 q 437 429 371 429 q 345 429 317 424 q 269 415 220 386 q 171 358 128 309 q 108 285 90 256 q 24 147 24 36 l 24 29 q 25 -38 54 -95 q 82 -151 141 -189 q 181 -215 224 -226 q 268 -238 312 -238 q 372 -238 431 -219 q 491 -200 544 -168 q 620 -123 678 -60 q 736 2 763 72 q 783 131 783 176 q 783 207 775 229 q 766 256 749 270 l 747 271 q 713 247 692 234 q 671 222 654 218 l 652 217 q 646 216 642 216 q 629 216 624 225 q 621 229 621 236 q 621 239 622 243 q 623 248 625 252 q 625 252 625 253 l 626 253 q 636 271 660 284 q 701 306 739 306 l 744 306 q 824 396 869 521 q 893 588 893 648 l 892 666 q 889 733 844 777 q 814 804 767 817 q 720 831 676 831 q 649 831 627 826 q 556 810 505 757 q 454 704 443 610 q 442 597 442 583 q 442 539 458 500 q 472 468 498 447 q 523 426 561 421 q 568 421 575 421 q 614 421 665 442 l 667 443 q 671 443 674 438 l 674 436 q 674 431 670 429 q 617 406 575 406 l 559 407 q 518 412 489 436 q 460 459 445 495 q 427 537 427 586 q 427 599 429 612 q 440 711 494 767 q 548 823 625 840 l 636 843 q 670 850 706 850 q 762 850 817 833 q 914 804 969 734 q 987 710 998 682 q 1008 654 1008 623 q 1008 594 998 563 q 989 533 969 500 q 932 441 873 381 q 832 339 782 299 q 810 291 831 271 q 864 241 874 193 q 879 173 879 151 q 879 110 861 62 q 835 -4 785 -60 q 735 -115 670 -156 q 519 -249 363 -255 z"},"x":{"x_min":0,"x_max":393,"ha":393,"o":"m -80 -8 q -93 -8 -99 5 q -104 18 -106 36 l -106 39 l -106 39 l -106 40 l -105 40 l -105 42 l -105 42 l -105 42 l -104 42 l -104 42 l -104 42 l -104 43 l -103 43 l -102 44 l -101 44 l -100 44 l -99 44 l -99 44 l -97 44 l -97 43 l -96 43 l -96 43 l -95 43 l -95 42 l -95 42 l -95 42 l -94 42 l -94 42 q -91 38 -88 36 l -87 35 q -81 31 -72 31 q -66 31 -59 33 q -41 40 -21 57 q -8 68 5 83 q 0 103 -1 125 q -4 149 -4 173 q -4 216 1 255 q 6 294 12 318 q 13 321 15 323 q 17 324 19 324 l 90 324 l 93 323 l 94 322 q 97 321 97 318 l 97 315 q 92 282 88 244 q 84 207 83 181 q 90 191 106 209 q 123 228 144 248 q 165 268 187 281 q 209 295 229 295 q 239 295 248 290 q 256 285 263 272 q 263 271 263 271 q 263 271 263 271 q 264 270 264 270 l 264 268 q 263 266 263 263 q 263 256 262 249 q 260 242 255 241 l 253 241 l 252 242 l 251 242 l 251 242 l 250 242 q 250 243 249 243 q 248 244 248 246 q 246 250 242 253 q 232 263 220 263 q 202 263 181 248 q 160 233 140 212 q 120 190 104 170 q 88 149 81 137 l 81 125 q 81 81 96 60 q 111 40 137 40 q 173 40 227 75 q 286 120 333 166 q 380 212 396 230 q 399 233 402 233 q 404 233 407 231 q 409 229 409 226 q 409 224 407 221 q 391 202 342 155 q 294 108 233 62 q 199 36 165 18 q 130 0 101 -2 l 90 -3 q 80 -3 71 -1 q 36 9 19 45 q 15 53 11 62 q -8 37 -28 20 q -62 -8 -80 -8 z"},")":{"x_min":0,"x_max":388,"ha":388,"o":"m 313 706 l 315 706 q 338 697 349 666 q 353 657 357 646 q 358 646 358 644 q 381 585 381 501 q 381 422 361 329 q 340 236 300 145 q 259 54 199 -22 q 136 -101 53 -147 q 33 -160 14 -167 q 13 -167 13 -167 q 12 -167 12 -167 q 9 -167 7 -166 q 5 -164 4 -162 l 4 -159 q 4 -155 9 -153 q 29 -145 48 -134 q 123 -82 185 39 q 248 159 290 298 q 324 413 337 510 q 343 556 343 593 q 343 632 336 658 l 335 660 q 324 680 308 693 q 306 695 306 698 q 306 701 308 703 q 310 706 313 706 z"},"&":{"x_min":0,"x_max":778,"ha":778,"o":"m 288 -3 l 276 -3 q 207 -1 151 41 q 101 80 80 150 q 72 182 72 216 q 72 269 91 321 q 117 389 171 434 q 230 480 305 480 q 350 480 399 462 q 331 526 331 588 q 331 620 348 646 l 348 648 q 405 737 489 737 q 501 737 513 735 q 562 728 592 697 q 618 672 618 645 q 618 600 549 578 q 544 578 542 580 q 541 581 540 585 q 540 590 545 592 q 604 610 604 646 q 604 664 589 673 q 573 681 550 681 q 518 681 482 667 q 413 638 405 570 l 404 556 q 404 483 491 412 q 494 410 494 406 q 494 399 486 399 q 485 399 485 400 q 484 400 483 400 q 482 400 482 401 q 481 401 480 401 q 411 438 354 438 q 329 438 307 431 q 230 410 190 334 q 160 275 160 211 q 160 178 168 146 q 187 76 232 41 q 270 15 320 15 q 375 15 427 43 q 480 71 505 116 q 522 152 522 187 q 522 204 519 220 q 506 267 467 279 q 460 280 453 280 q 410 280 361 227 q 358 222 354 222 q 347 224 347 229 l 347 231 q 361 274 370 294 q 400 371 459 385 q 470 388 481 388 q 508 388 557 372 q 593 361 620 361 q 652 361 670 380 q 688 400 694 444 q 696 452 696 461 q 696 469 694 478 q 689 521 641 524 q 606 524 588 515 q 558 498 558 465 q 559 442 572 430 q 582 421 596 421 q 606 421 619 426 l 622 427 q 627 427 629 419 q 629 416 625 413 q 609 406 597 406 q 576 406 563 419 q 543 437 543 465 q 543 482 551 497 q 572 539 636 539 q 674 539 691 519 q 710 498 710 461 q 710 451 708 441 q 699 369 656 340 q 614 311 541 311 l 538 311 l 504 310 q 451 308 412 285 q 435 295 454 295 q 462 295 470 293 q 518 279 532 223 q 537 206 537 186 q 537 148 518 109 q 502 79 472 53 q 442 28 397 12 q 352 -3 288 -3 z"},"_":{"x_min":0,"x_max":457,"ha":457,"o":"m 338 -41 l 22 -41 q 19 -41 19 -37 q 19 -32 23 -24 q 26 -17 31 -12 q 35 -7 39 -7 l 355 -7 q 357 -7 357 -11 q 357 -16 354 -23 q 350 -31 345 -36 q 341 -41 338 -41 z"},"v":{"x_min":0,"x_max":398,"ha":398,"o":"m 179 164 q 188 180 194 196 q 214 247 214 281 q 214 291 212 298 q 208 312 200 312 q 187 312 171 285 q 154 258 154 225 q 154 204 164 183 q 170 172 179 164 z m 3 0 q -27 0 -50 13 q -60 19 -66 29 q -73 39 -75 52 q -77 62 -77 71 q -77 100 -62 128 l 50 324 q 52 328 56 328 l 128 328 q 130 328 132 327 q 133 326 134 325 q 136 323 136 320 q 136 318 135 316 l -10 62 q -17 47 -17 36 q -17 26 -9 21 q -4 20 3 20 q 21 20 44 28 q 67 37 83 48 q 102 61 119 79 q 149 111 171 151 q 159 162 151 177 q 140 201 140 228 q 140 236 141 244 q 144 274 160 297 q 176 320 203 328 q 208 329 212 329 q 217 330 222 330 q 270 326 283 285 q 287 271 287 252 q 287 240 285 226 q 280 193 262 158 l 257 148 q 314 159 409 236 q 412 238 414 238 q 417 238 419 236 q 421 234 421 231 q 421 229 418 226 q 365 181 322 158 q 279 136 248 132 q 226 99 185 69 q 144 39 95 20 q 46 0 3 0 z"},"O":{"x_min":0,"x_max":964,"ha":964,"o":"m 546 14 q 628 16 697 53 q 765 91 815 150 q 866 209 896 274 q 931 354 931 417 q 931 443 925 463 q 873 419 794 398 q 716 377 623 371 q 567 298 561 225 q 561 222 559 220 q 557 218 553 218 q 550 218 548 220 q 546 222 546 225 q 553 298 604 369 q 527 363 448 361 l 424 360 q 381 278 369 203 q 366 180 366 160 q 366 107 387 75 q 408 43 448 28 q 487 14 543 14 z m 432 375 q 530 377 616 384 q 676 460 752 502 q 805 532 851 532 q 908 530 930 488 q 943 502 953 520 q 980 570 980 607 q 980 635 968 656 q 955 677 932 690 q 901 708 864 708 q 824 708 781 691 q 738 675 697 651 q 656 626 622 600 q 587 573 565 550 q 487 472 435 380 z m 635 386 q 724 394 798 414 q 872 435 919 478 q 901 515 851 517 q 807 517 758 489 q 708 461 664 417 q 649 402 635 386 z m 545 0 q 460 0 409 30 q 321 83 321 202 q 321 274 354 357 q 272 353 203 342 q 133 332 85 307 q 37 283 19 238 q 17 233 12 233 q 11 234 9 234 q 7 235 6 237 q 4 239 4 241 l 5 244 q 25 292 76 319 q 128 345 201 356 q 274 368 359 371 l 369 392 l 372 398 q 403 462 451 521 q 499 580 559 626 q 619 673 689 700 q 760 728 837 728 q 898 727 939 703 q 995 670 995 607 q 995 566 965 512 q 953 491 936 474 q 938 471 938 468 q 945 445 945 417 q 945 351 909 269 q 878 201 825 140 q 773 79 702 40 q 632 1 545 0 z"},"(":{"x_min":0,"x_max":388,"ha":388,"o":"m 72 -167 l 70 -167 q 46 -158 36 -126 q 32 -118 27 -107 q 27 -106 26 -105 q 4 -46 4 38 q 4 117 24 210 q 44 303 85 394 q 126 485 186 561 q 249 640 332 687 q 352 699 371 706 q 372 706 372 706 q 373 706 373 706 q 375 706 378 705 q 380 703 380 701 l 381 698 q 381 694 376 692 q 355 684 336 673 q 262 621 199 500 q 137 380 95 241 q 61 126 48 29 q 42 -17 42 -54 q 42 -93 49 -119 l 49 -121 q 61 -141 77 -154 q 79 -156 79 -159 q 79 -162 77 -164 q 75 -167 72 -167 z"},"C":{"x_min":0,"x_max":576,"ha":576,"o":"m 236 -81 q 216 -81 198 -77 q 160 -68 135 -44 q 110 -18 110 21 q 92 32 80 47 q 49 86 49 150 q 49 227 88 317 q 81 321 74 327 q 32 361 16 411 q 8 435 8 461 q 8 503 29 549 q 50 595 96 643 q 139 685 192 706 q 245 728 294 728 q 347 728 380 706 q 403 692 414 669 l 418 671 q 475 693 521 694 q 547 694 570 686 q 592 677 606 659 q 620 641 620 613 l 619 599 q 612 536 545 455 q 444 334 327 296 q 272 279 224 279 q 192 279 164 286 q 127 193 127 124 q 127 108 129 94 q 157 148 230 207 q 280 250 325 270 q 369 290 402 290 q 484 286 484 221 q 484 207 479 190 q 470 160 447 128 q 404 70 339 35 q 273 0 203 0 q 155 0 124 14 q 127 -15 146 -34 q 167 -56 201 -63 q 217 -66 236 -66 q 282 -66 338 -43 q 394 -20 452 33 q 455 36 457 36 q 460 36 462 33 q 464 31 464 29 q 464 25 461 23 q 400 -32 342 -56 q 284 -81 236 -81 z m 215 13 q 254 13 298 33 q 342 54 379 82 q 448 135 466 194 q 470 209 470 222 q 470 232 467 241 q 458 270 411 275 l 406 275 q 375 275 331 257 q 288 238 240 196 q 239 196 239 196 q 157 129 135 72 q 155 13 215 13 z m 94 330 q 141 436 222 526 q 303 616 400 663 q 380 706 313 713 l 295 714 q 250 714 198 694 q 147 673 106 632 q 62 587 42 544 q 22 500 22 461 q 22 437 29 415 q 44 370 83 338 z m 224 293 q 271 293 323 310 q 376 328 429 365 q 482 403 534 464 q 555 489 571 515 q 600 562 605 601 l 606 615 q 606 670 552 670 q 519 670 481 654 q 443 639 421 625 q 420 579 375 514 q 373 511 369 511 q 367 511 366 512 q 362 515 362 519 q 362 521 364 522 q 400 576 406 614 q 338 565 282 492 q 225 418 186 336 q 177 317 169 299 q 174 298 178 297 q 200 293 224 293 z"},"W":{"x_min":0,"x_max":1375,"ha":1375,"o":"m 1085 -7 q 1083 -7 1081 -4 q 1080 0 1079 4 q 1078 8 1078 12 q 1078 15 1079 16 q 1124 105 1140 174 q 1156 242 1156 298 q 1156 329 1153 358 q 1150 387 1146 415 q 1142 442 1139 471 q 1136 499 1136 530 q 1136 597 1156 666 l 693 -2 q 690 -6 688 -6 q 684 -6 682 0 q 680 6 680 11 q 680 14 681 16 q 726 105 742 174 q 759 242 759 298 q 759 329 756 358 q 753 387 749 415 q 745 443 742 471 q 739 500 739 530 q 739 603 763 678 q 692 681 599 700 q 542 711 482 720 q 421 729 360 729 q 312 729 266 720 q 220 712 179 691 q 137 671 102 635 q 53 583 33 522 q 20 479 20 442 q 20 385 48 354 l 48 354 q 70 332 107 332 q 161 332 205 391 q 239 439 271 521 q 273 526 277 526 q 284 524 284 519 l 284 516 q 268 477 255 449 q 239 414 216 382 q 168 317 106 317 q 63 317 38 344 q 18 366 10 399 q 5 419 5 443 q 5 482 20 526 q 41 591 92 645 q 129 683 172 704 q 215 726 263 734 q 311 743 360 743 q 421 743 483 734 q 544 725 602 714 q 649 705 691 699 q 733 692 768 692 q 773 710 782 721 q 792 732 813 732 q 835 732 847 722 q 854 715 854 708 q 854 701 848 695 q 836 683 784 679 l 781 679 q 772 635 772 598 q 772 552 781 512 q 790 473 801 434 q 812 395 821 352 q 830 310 830 260 q 830 239 828 216 l 1193 745 l 1206 736 q 1169 683 1169 605 q 1169 562 1178 518 q 1187 474 1198 435 q 1212 382 1219 351 q 1227 310 1227 262 q 1227 240 1225 216 l 1591 745 q 1627 793 1662 817 q 1697 840 1728 842 l 1736 842 q 1758 842 1776 833 q 1798 822 1811 801 q 1823 781 1823 755 q 1823 735 1814 714 q 1812 709 1808 709 l 1805 710 q 1801 713 1801 717 l 1801 720 q 1809 738 1809 755 q 1809 777 1798 794 q 1777 828 1734 828 q 1703 827 1668 804 q 1636 782 1603 736 l 1091 -2 q 1087 -7 1085 -7 z m 784 693 q 831 696 838 706 l 839 708 q 839 709 837 711 q 829 718 813 718 q 788 718 784 693 z"},"A":{"x_min":0,"x_max":1199,"ha":1199,"o":"m 957 2 l 874 2 q 870 2 868 4 q 864 7 864 11 l 864 13 q 890 115 890 189 q 890 252 875 297 q 805 220 728 155 q 650 90 566 50 q 481 10 388 7 l 372 7 q 285 7 221 28 q 157 50 115 87 q 73 125 50 174 q 22 238 22 309 q 22 335 26 363 q 40 463 97 551 q 130 603 175 643 q 220 683 275 706 q 330 729 392 729 q 427 729 463 721 q 564 696 619 625 q 679 548 686 445 l 686 437 q 698 438 709 438 q 783 438 835 390 q 862 365 880 325 q 943 395 1000 464 q 1049 522 1094 573 q 1139 624 1182 664 q 1225 703 1265 726 q 1306 749 1344 749 q 1359 749 1374 745 q 1386 742 1386 735 q 1386 731 1381 726 q 1357 708 1205 438 l 1035 133 q 992 55 963 6 q 960 2 957 2 z m 887 44 q 973 185 1150 441 q 1316 680 1365 731 q 1354 734 1344 734 q 1308 734 1269 711 q 1230 689 1189 650 q 1148 611 1104 561 q 1059 511 1012 455 q 952 383 886 310 q 905 263 905 190 q 905 126 887 44 z m 388 21 q 479 25 563 65 q 646 106 723 171 q 799 236 869 313 q 852 354 825 379 q 777 423 710 423 q 698 423 687 421 l 687 418 q 687 332 647 248 q 606 165 562 123 q 517 82 485 82 q 466 82 454 97 q 442 113 442 143 q 442 187 473 261 q 510 345 580 397 q 603 414 628 423 q 650 431 671 435 l 671 444 q 665 542 607 616 q 555 683 460 707 q 425 714 392 714 q 333 714 280 692 q 228 670 184 632 q 141 593 109 543 q 55 458 41 360 q 37 334 37 308 q 37 241 64 181 q 85 134 125 98 q 166 62 228 42 q 289 21 374 21 z m 485 93 q 516 95 558 140 q 600 185 634 254 q 672 336 672 419 q 652 416 633 409 q 610 400 588 385 q 522 335 486 255 q 456 183 456 139 q 456 94 485 93 z"},"f":{"x_min":0,"x_max":208,"ha":208,"o":"m -102 -130 l -98 -129 q -73 -122 -44 -86 q -16 -51 8 1 q 27 42 39 86 q 50 131 50 173 q 50 196 46 217 q 43 211 34 193 q 13 156 -21 92 q -54 29 -82 -32 q -110 -94 -110 -118 q -110 -129 -102 -130 z m 63 251 q 150 338 196 406 q 241 473 253 513 q 257 528 257 538 q 257 543 256 546 q 254 550 251 550 q 239 550 209 506 q 180 462 147 405 q 115 348 91 303 q 67 258 63 251 z m -111 -145 q -125 -145 -135 -139 l -137 -137 l -138 -137 q -146 -131 -152 -122 q -158 -112 -161 -100 q -163 -90 -163 -80 q -163 -52 -147 -23 q -134 0 -121 23 q -31 183 64 339 q 107 409 141 459 q 203 547 237 561 q 245 564 251 564 q 263 564 269 552 q 271 546 271 537 q 271 525 267 508 q 254 465 205 393 q 155 321 62 229 q 64 227 64 224 q 67 217 79 205 q 90 194 107 188 q 119 185 131 185 q 139 185 147 187 q 177 192 211 230 q 214 232 217 232 q 219 232 222 230 q 224 228 224 225 q 224 223 222 220 q 185 179 150 172 q 140 170 130 170 q 116 170 104 174 q 83 182 69 194 q 68 195 66 196 q 65 198 63 200 q 64 186 64 172 q 64 128 52 83 q 41 37 21 -5 q -4 -60 -35 -97 q -66 -135 -94 -143 q -103 -145 -111 -145 z"},"Q":{"x_min":0,"x_max":788,"ha":788,"o":"m 245 -16 q 261 -16 278 -15 q 290 -13 302 -11 q 276 3 252 18 q 244 22 236 27 q 235 27 233 29 q 220 37 185 57 q 150 77 109 95 q 69 113 42 113 q 31 113 24 108 q 17 103 17 90 l 17 84 q 21 55 62 26 q 89 8 131 -3 q 173 -15 230 -16 z m 525 -87 q 475 -87 425 -69 q 375 -51 325 -24 q 303 -27 283 -28 q 263 -30 243 -30 l 229 -30 q 170 -29 127 -17 q 83 -4 55 15 q 8 47 3 82 l 2 90 q 2 105 12 117 q 21 129 39 136 q 56 143 80 143 q 109 143 150 131 q 191 120 244 94 q 301 63 355 25 q 362 20 370 15 q 374 13 377 10 q 437 35 484 78 q 532 120 568 174 q 628 266 653 368 q 667 429 667 486 q 667 521 662 554 q 650 608 624 641 q 597 674 559 688 q 521 703 477 703 q 410 703 339 675 q 256 644 193 583 q 130 524 104 445 q 93 407 93 368 q 93 323 109 276 q 120 249 136 226 q 169 179 223 160 q 246 153 272 153 q 307 153 346 167 q 381 181 421 208 q 423 209 425 209 q 428 209 431 207 q 432 205 432 203 q 432 199 429 197 q 388 167 350 153 q 309 138 272 138 q 244 138 218 146 q 160 167 125 217 q 107 242 96 271 q 78 321 78 369 q 78 411 90 449 q 117 532 183 594 q 249 656 333 689 q 403 715 474 715 q 521 715 566 702 l 567 701 q 665 668 709 592 q 730 557 740 516 q 750 475 750 431 q 750 415 749 399 q 740 292 683 193 q 645 128 589 79 q 532 30 461 7 q 432 -2 406 -8 q 443 -33 479 -49 q 516 -65 553 -65 q 596 -65 640 -35 q 642 -34 643 -33 q 644 -33 645 -32 q 646 -31 648 -29 q 650 -27 652 -27 q 656 -27 659 -30 q 660 -32 660 -35 q 660 -38 657 -41 l 652 -44 q 651 -45 650 -45 q 650 -45 650 -46 q 649 -46 649 -46 q 649 -46 648 -47 l 647 -48 q 618 -69 587 -78 q 556 -87 525 -87 z"},"w":{"x_min":0,"x_max":574,"ha":574,"o":"m 347 157 l 362 190 q 382 239 382 273 q 382 306 369 306 q 354 306 339 278 q 323 250 323 218 q 323 179 347 157 z m 173 -7 q 143 -7 119 6 q 91 23 91 64 q 19 0 -23 0 q -51 0 -65 23 q -76 40 -76 66 q -76 94 -61 122 l 50 317 q 53 321 57 321 l 129 321 q 133 321 135 319 q 137 317 137 314 q 137 312 -9 55 q -14 46 -14 39 l -13 35 q -10 21 0 21 q 16 21 47 53 q 69 74 86 95 q 103 116 106 122 l 218 317 q 221 321 224 321 l 297 321 q 300 321 302 319 q 305 317 305 314 q 305 312 158 55 q 154 47 154 38 q 154 37 155 31 q 155 26 162 20 q 172 14 185 14 q 212 14 252 43 q 304 81 340 145 q 308 171 308 220 q 308 261 329 291 q 344 314 372 321 q 376 323 380 323 l 381 323 l 390 324 q 456 318 456 246 q 456 203 430 151 l 425 142 q 482 152 578 230 q 580 232 583 232 q 585 232 587 229 q 589 227 589 225 q 589 222 586 220 q 486 135 416 125 q 402 104 368 77 q 333 49 289 26 q 244 2 199 -5 q 186 -7 173 -7 z"},"-":{"x_min":0,"x_max":495,"ha":495,"o":"m 404 208 l 87 208 q 84 208 84 212 q 84 217 88 225 q 92 232 96 237 q 101 242 104 242 l 420 242 q 423 242 423 238 q 423 233 419 226 q 416 218 411 213 q 406 208 404 208 z"},"E":{"x_min":0,"x_max":752,"ha":752,"o":"m 340 -79 l 338 -79 q 312 -74 293 -62 q 237 -29 237 51 l 238 71 q 208 105 194 154 q 186 187 186 221 q 186 273 205 325 q 231 393 286 438 q 344 484 417 484 q 464 484 513 466 q 468 508 456 544 l 452 552 l 405 560 q 368 566 327 571 q 286 577 245 577 q 197 577 152 564 q 107 552 72 521 q 37 489 16 431 q 14 426 9 426 q 2 427 2 434 l 2 436 q 24 498 62 531 q 99 565 146 578 q 193 591 244 591 q 285 591 327 586 q 369 581 408 574 q 429 570 448 568 q 445 581 445 593 q 445 633 469 664 q 493 695 530 713 q 567 731 606 731 q 619 731 632 729 q 688 718 717 686 q 733 667 733 646 q 733 601 654 573 q 606 555 521 548 l 519 548 q 526 482 605 416 q 608 414 608 411 q 608 408 607 406 q 605 403 601 403 q 599 403 597 404 q 524 442 469 442 q 443 442 421 436 q 346 415 305 338 q 274 280 274 215 l 275 196 l 278 202 q 283 212 289 221 q 324 282 364 320 q 405 357 447 375 q 488 392 526 392 l 529 392 q 588 390 629 357 q 670 324 681 270 q 683 257 683 244 q 683 202 657 154 q 631 105 573 57 q 537 28 491 15 q 446 1 400 1 l 391 1 q 322 3 266 45 q 263 48 259 51 q 255 54 252 57 l 252 48 q 252 26 258 6 q 274 -51 341 -64 q 344 -65 345 -67 q 347 -69 347 -72 q 346 -75 344 -77 q 342 -79 340 -79 z m 431 20 q 503 20 564 68 q 620 115 644 160 q 668 205 668 244 q 668 256 667 267 q 657 316 620 345 q 581 376 526 377 q 490 377 451 361 q 412 345 373 309 q 335 272 301 214 q 289 192 278 169 l 280 163 q 281 156 283 150 q 300 80 347 45 q 382 20 431 20 z m 520 562 q 602 569 648 585 q 693 601 709 621 q 721 636 721 647 q 721 665 700 675 q 680 685 652 685 q 618 685 584 667 q 558 653 540 629 q 522 604 519 574 q 518 568 518 562 z"},"s":{"x_min":0,"x_max":262,"ha":262,"o":"m -28 -3 q -83 -3 -103 15 q -114 25 -114 40 q -114 44 -113 49 q -109 81 -34 126 q -32 127 -30 127 q -26 127 -24 124 l -23 121 q -23 117 -27 114 q -96 72 -100 46 l -100 41 q -100 21 -72 16 q -64 14 -56 14 q -28 14 2 32 q 24 45 39 71 q 54 97 54 137 q 54 153 51 171 l 50 172 q 49 183 46 194 q 40 222 40 249 l 40 252 q 28 238 20 229 q 16 225 12 220 q 9 218 6 218 q 4 218 2 220 q 0 222 0 225 q 0 228 1 229 l 90 331 q 94 332 130 332 l 162 332 q 167 332 168 329 q 169 326 169 324 q 169 321 166 318 q 141 303 132 284 q 124 266 124 246 q 124 222 130 196 q 136 160 136 141 q 136 115 129 91 q 183 142 232 196 l 266 231 q 268 234 271 234 q 273 234 276 232 q 278 229 278 227 q 278 224 276 222 l 242 186 q 172 109 95 38 q 70 17 38 7 q 6 -3 -28 -3 z"},">":{"x_min":0,"x_max":495,"ha":495,"o":"m 75 69 q 70 69 68 76 q 68 80 72 83 l 350 229 l 141 372 q 136 375 136 379 l 137 383 q 140 386 143 386 q 145 386 393 234 q 396 232 396 228 q 396 223 391 220 q 79 70 75 69 z"},"l":{"x_min":0,"x_max":227,"ha":227,"o":"m 113 317 q 223 433 279 515 q 335 597 350 643 q 356 664 356 676 q 356 684 354 688 q 351 694 343 694 q 339 694 333 692 q 310 681 270 615 q 230 549 190 470 q 149 391 125 342 q 118 326 113 317 z m -27 0 q -42 0 -52 6 q -62 13 -69 23 q -75 33 -78 45 q -80 55 -80 66 q -80 94 -64 122 l 47 317 l 48 318 q 99 405 147 484 q 189 554 223 604 q 274 676 312 698 q 313 698 313 698 q 313 699 314 699 q 322 704 329 706 q 337 709 344 709 q 359 709 367 695 q 370 688 370 677 q 370 661 363 639 q 347 588 283 497 q 219 405 93 274 q 72 233 53 193 q 48 183 43 172 l 36 159 q 27 142 15 117 q 2 92 -7 69 q -17 46 -17 37 l -17 35 q -16 31 -14 30 q -11 28 -6 28 l -3 28 q 23 32 59 60 q 95 88 130 123 q 164 158 186 183 q 194 191 199 196 l 232 232 q 234 234 237 234 q 240 234 242 232 q 245 230 245 228 q 245 225 242 222 q 233 212 222 201 q 216 194 209 187 q 205 183 200 177 q 177 152 140 114 q 102 75 61 42 q 20 10 -14 1 q -21 0 -27 0 z"},"8":{"x_min":0,"x_max":536,"ha":536,"o":"m 311 386 q 334 386 361 408 q 387 430 408 458 q 429 485 438 504 q 469 564 469 619 q 469 641 463 660 q 449 702 420 702 q 402 702 382 688 q 346 663 312 614 q 298 594 292 582 q 262 521 262 467 q 262 445 268 426 q 282 386 311 386 z m 165 -1 q 142 -1 121 4 q 69 18 40 57 q 11 96 11 149 q 11 174 17 198 q 40 281 108 336 q 160 378 224 391 q 205 402 192 419 q 166 455 166 503 q 166 524 171 546 q 192 620 252 669 q 280 692 316 706 q 352 720 389 720 q 408 720 426 716 q 474 703 501 666 q 525 631 525 586 q 524 561 520 542 q 500 468 438 419 q 395 384 342 373 q 369 357 386 333 q 414 294 414 242 q 413 217 407 194 q 384 111 316 56 q 245 -1 165 -1 z m 178 14 l 184 14 q 227 30 261 66 q 296 103 320 150 q 343 197 351 244 q 354 263 354 281 q 354 344 314 369 l 302 368 q 290 368 277 370 q 237 353 205 317 q 173 282 151 238 q 128 191 120 144 q 117 126 117 109 q 117 84 125 62 q 132 41 145 27 q 158 14 178 14 z"},"\\":{"x_min":0,"x_max":690,"ha":690,"o":"m 493 0 q 489 0 486 4 q 459 46 369 166 q 366 170 363 174 q 298 260 225 360 q 152 460 92 553 q 32 646 6 710 l 6 713 q 6 715 7 717 q 8 719 10 720 l 13 720 q 15 720 17 719 q 18 719 18 719 q 19 719 20 719 q 21 718 21 718 q 24 715 24 711 l 24 708 l 27 702 q 44 669 88 604 q 135 536 216 438 q 297 341 381 243 q 387 237 392 231 q 460 152 510 93 q 559 34 572 12 l 573 9 l 572 7 q 572 4 570 2 q 568 0 565 0 z"},"e":{"x_min":0,"x_max":346,"ha":346,"o":"m 49 149 q 101 156 155 205 q 186 233 199 255 q 213 277 213 291 q 213 306 197 307 q 185 307 165 295 q 145 283 119 257 q 75 209 49 149 z m 48 0 q 20 0 -4 15 q -21 25 -33 43 q -36 47 -38 51 q -38 52 -38 52 q -48 74 -48 102 q -48 136 -34 175 q -21 209 1 241 q 24 273 56 295 q 80 311 110 321 q 141 331 168 331 q 175 331 181 330 q 210 327 225 314 q 241 300 241 273 q 241 241 225 216 q 209 191 185 172 q 134 137 79 125 q 57 121 40 121 l 38 121 q 24 80 24 51 q 24 40 26 31 q 28 21 35 17 q 42 13 50 13 q 64 13 80 19 q 81 19 82 19 q 129 33 179 66 q 237 107 285 156 q 332 204 354 238 q 356 242 360 242 q 361 242 363 241 q 367 238 367 234 q 367 232 366 230 q 343 195 295 146 q 246 96 187 55 q 135 20 85 5 q 66 0 48 0 z"},"b":{"x_min":0,"x_max":427,"ha":427,"o":"m 120 328 q 227 442 282 522 q 337 603 352 649 q 358 670 358 684 l 358 691 q 355 701 347 701 l 346 701 q 329 701 303 668 q 277 635 249 585 q 220 535 193 481 q 167 428 147 386 q 127 345 120 328 z m 209 164 q 218 181 225 197 q 245 247 245 281 q 245 291 243 299 q 239 313 230 313 q 217 313 201 285 q 185 257 185 224 q 185 208 190 192 q 196 177 209 164 z m 44 0 q 19 0 -2 9 q -23 19 -35 41 q -47 63 -47 99 q -47 125 -36 161 q -24 196 0 240 q 8 252 18 271 q 21 275 24 281 q 59 342 106 424 q 154 505 202 577 q 251 650 289 685 q 303 698 314 705 l 316 706 q 335 716 347 716 q 367 715 372 694 q 373 689 373 683 q 373 667 365 644 q 349 594 287 506 q 225 417 104 291 q 95 269 81 227 q 67 186 56 140 q 45 94 45 62 q 45 43 50 32 q 55 21 67 21 q 79 21 99 34 q 120 48 149 79 q 180 111 202 151 q 190 162 182 177 q 170 202 170 229 l 171 245 q 175 275 191 298 q 207 321 233 328 q 238 330 243 330 l 244 330 q 248 331 252 331 q 300 327 313 286 q 318 271 318 252 q 318 240 315 227 q 310 194 292 158 l 288 148 q 345 159 439 237 q 442 239 444 239 q 447 239 450 236 q 451 234 451 232 q 451 229 449 227 q 395 181 352 159 q 310 137 278 132 q 243 80 174 40 q 105 0 44 0 z"},"%":{"x_min":0,"x_max":744,"ha":744,"o":"m 488 13 q 505 13 523 25 q 541 38 555 54 q 570 70 579 83 q 620 146 637 222 q 647 265 647 302 q 647 330 641 352 q 634 376 624 386 q 614 396 603 396 q 587 396 572 385 q 556 373 542 356 q 528 339 518 323 q 472 253 451 171 q 441 130 441 97 q 441 64 451 42 q 458 26 468 20 q 478 13 488 13 z m 119 314 q 135 314 153 326 q 170 339 185 355 q 200 371 209 385 q 250 447 267 523 q 277 565 277 603 q 277 630 271 652 q 264 677 254 687 q 244 698 232 698 q 218 698 202 686 q 186 673 172 656 q 158 640 147 625 q 102 555 82 473 q 71 432 71 397 q 71 365 82 343 q 89 328 98 321 q 108 314 119 314 z m 132 -4 l 61 -4 q 55 -4 53 2 l 53 3 q 53 5 54 7 q 67 29 116 88 q 166 147 234 227 q 320 326 405 427 q 489 529 538 599 q 582 664 599 697 l 602 704 l 602 707 q 602 710 604 713 q 606 714 607 714 q 608 714 609 714 q 611 715 613 715 l 615 715 q 618 714 619 712 q 620 710 620 708 l 620 706 q 593 640 532 545 q 471 451 396 349 q 322 247 257 161 q 166 42 139 -1 q 138 -2 136 -3 q 134 -4 132 -4 z m 139 298 q 115 298 93 308 l 92 308 q 63 323 44 352 q 17 396 17 457 q 17 481 22 507 q 40 594 93 652 q 119 681 150 697 q 181 714 212 714 l 221 713 q 227 713 233 711 q 242 710 250 707 q 251 707 252 707 l 252 706 q 290 690 311 652 q 334 611 334 556 l 333 536 l 333 535 q 332 520 330 504 q 312 417 259 359 q 232 331 202 314 q 171 298 139 298 z m 509 -3 q 485 -3 462 7 l 462 7 q 433 21 415 51 q 387 94 387 156 q 387 179 392 206 q 410 293 462 352 q 489 380 520 396 q 551 413 583 413 q 586 413 593 412 q 599 412 603 411 q 611 409 618 406 q 620 406 622 405 l 623 405 q 660 390 681 352 q 704 310 704 253 l 704 235 q 703 220 700 203 q 682 116 629 58 q 573 -3 509 -3 z"},"m":{"x_min":0,"x_max":574,"ha":574,"o":"m 321 0 q 292 0 278 23 q 267 41 267 65 q 267 94 282 122 l 394 309 q 354 295 307 254 q 255 210 212 142 q 135 0 127 0 l 125 1 q 125 0 54 0 q 48 0 47 7 q 47 10 48 12 q 130 161 216 308 q 175 292 127 249 q 79 207 40 145 l 20 108 q -41 0 -46 0 l -48 1 q -50 0 -120 0 q -127 0 -127 7 l -126 12 q -72 112 47 316 q 47 318 49 319 q 52 321 91 321 q 130 321 132 319 q 135 317 135 314 q 135 312 91 234 q 158 302 214 322 q 234 330 249 330 q 277 330 284 306 q 285 301 285 294 q 285 273 269 239 q 334 303 389 322 q 408 330 422 330 q 451 330 458 306 q 460 300 460 293 q 460 287 458 280 q 431 215 343 69 l 334 55 q 330 46 330 39 q 331 34 332 31 q 333 28 341 28 q 363 28 402 56 q 476 118 551 202 q 581 234 584 234 q 587 234 590 232 q 592 230 592 227 q 592 224 556 187 q 486 108 411 45 q 411 44 410 44 q 410 43 409 43 q 355 0 321 0 z"},"#":{"x_min":0,"x_max":727,"ha":727,"o":"m 494 270 q 506 291 519 312 q 557 376 595 441 l 378 441 q 346 374 313 310 q 303 290 293 270 z m 424 -4 l 352 -4 q 346 -4 345 2 l 345 3 q 345 5 346 7 q 359 31 397 98 q 435 166 486 255 l 286 255 q 189 64 150 -1 q 148 -4 144 -4 l 72 -4 q 69 -4 67 -3 q 65 -1 65 2 l 64 4 l 65 7 q 71 17 83 38 q 125 114 206 255 l 13 255 q 10 255 8 257 q 6 259 6 262 q 6 269 13 270 l 214 270 l 315 441 l 120 441 q 117 441 115 443 q 112 445 112 448 q 112 451 115 453 q 117 455 120 455 l 324 455 q 375 540 416 599 q 459 664 476 697 l 479 704 l 479 706 q 479 710 482 713 q 484 714 485 714 q 486 714 486 714 q 488 715 491 715 l 493 715 q 495 714 496 712 q 498 710 498 708 l 497 706 q 458 607 384 455 l 604 455 q 655 540 695 599 q 739 664 756 697 l 760 704 l 759 707 q 759 710 762 713 q 763 713 764 714 q 765 714 766 714 q 766 714 767 714 q 769 715 771 715 l 773 715 q 775 714 777 713 q 778 711 778 709 l 777 706 q 738 607 665 455 l 802 455 q 804 455 806 453 q 809 451 809 448 q 809 445 806 443 q 804 441 802 441 l 658 441 l 636 396 q 617 358 598 320 q 585 294 573 270 l 719 270 q 722 270 724 268 q 726 266 726 262 q 726 259 724 257 q 722 255 719 255 l 565 255 q 468 64 431 -1 q 430 -2 428 -3 q 426 -4 424 -4 z"},",":{"x_min":0,"x_max":230,"ha":230,"o":"m -37 -62 q -45 -62 -45 -55 q -44 -48 -37 -48 q 4 -46 32 -10 l 39 0 q 22 0 11 13 q 3 24 3 36 q 3 47 9 58 q 19 75 34 80 q 42 83 50 83 q 67 83 77 71 q 88 59 88 39 q 88 10 61 -17 q 37 -42 3 -55 q -18 -62 -37 -62 z"},"n":{"x_min":0,"x_max":399,"ha":399,"o":"m 146 0 q 131 0 120 6 q 109 13 103 23 q 97 33 94 45 q 92 55 92 65 q 92 94 107 122 l 219 309 l 219 309 q 178 294 128 252 q 79 209 39 145 q -18 41 -42 4 q -44 0 -47 0 l -49 1 q -50 0 -50 0 q -51 0 -51 0 l -121 0 q -124 0 -126 2 q -128 4 -128 7 l -128 9 l -127 12 q -124 18 -119 28 q -94 72 -42 164 q -20 203 4 245 q 24 280 45 316 q 47 318 48 319 q 51 321 54 321 l 126 321 q 129 321 131 319 q 134 316 134 313 q 134 312 133 310 l 90 234 q 157 302 214 322 q 233 330 248 330 q 252 330 257 329 q 277 326 283 306 q 284 300 284 293 q 284 275 275 254 q 267 233 257 217 q 228 165 194 112 q 176 83 159 55 q 155 46 155 39 l 155 35 q 156 32 159 30 q 162 28 166 28 l 169 28 q 188 28 227 56 l 227 56 q 300 118 371 196 q 388 216 404 232 q 407 234 410 234 q 412 234 415 232 q 417 230 417 228 q 417 225 415 222 q 399 206 381 187 q 311 108 236 45 l 234 43 q 192 10 158 1 q 152 0 146 0 z"},"h":{"x_min":0,"x_max":391,"ha":391,"o":"m 115 317 q 224 433 280 515 q 336 597 351 643 q 357 664 357 676 q 357 684 355 688 q 352 694 344 694 q 340 694 334 692 q 311 681 269 611 q 227 542 186 461 q 146 381 124 334 z m 137 0 q 122 0 111 6 q 101 13 95 23 q 88 33 86 45 q 84 55 84 65 q 84 94 99 122 l 210 309 q 169 294 120 252 q 71 209 30 145 q -20 41 -40 4 q -42 0 -45 0 l -48 1 q -48 0 -49 0 q -49 0 -50 0 l -119 0 q -122 0 -124 2 q -125 4 -126 7 l -125 12 q -125 12 -125 13 q -105 48 -48 149 q 9 250 80 370 q 161 509 225 604 q 274 676 313 698 l 314 699 l 315 699 q 323 704 330 706 q 338 709 345 709 q 361 709 368 695 q 371 688 371 676 q 371 661 364 639 q 349 588 284 497 q 220 405 94 274 l 65 216 q 140 299 206 322 q 225 330 239 330 q 244 330 248 329 q 269 326 274 306 q 276 301 276 294 q 276 269 253 225 l 252 223 q 251 222 251 221 q 250 221 250 220 q 250 220 250 220 q 250 219 249 217 q 249 217 248 217 q 248 216 248 216 l 151 55 q 147 45 147 38 l 147 35 q 147 32 150 30 q 153 28 157 28 l 161 28 q 179 28 218 56 l 219 56 q 254 84 291 122 q 328 160 362 196 l 364 198 q 380 216 396 232 q 398 234 401 234 q 404 234 406 232 q 408 230 408 227 q 408 225 406 222 q 400 215 393 208 q 383 198 373 187 q 339 149 301 112 q 264 74 228 45 l 226 43 q 184 10 150 1 q 143 0 137 0 z"},"z":{"x_min":0,"x_max":396,"ha":396,"o":"m -184 -345 q -207 -345 -226 -339 l -227 -339 q -245 -333 -257 -319 q -273 -300 -274 -272 l -273 -259 q -267 -201 -196 -141 q -154 -105 -85 -74 l -12 -41 q 43 -17 71 -4 q 63 23 38 42 q 17 31 -7 23 q -34 16 -52 16 q -75 18 -75 33 q -75 35 -73 42 q -59 71 4 81 q 29 84 49 84 q 75 112 95 145 q 132 211 139 263 q 140 271 140 277 q 140 287 137 296 q 134 306 122 306 q 107 306 81 285 q 54 264 19 223 q 17 221 12 221 q 8 221 5 222 q -2 223 -2 229 q -2 230 0 233 q 23 261 55 286 q 115 335 155 335 q 179 335 190 316 q 198 304 198 283 q 198 275 197 267 q 181 150 92 77 q 120 67 138 47 l 149 34 q 223 71 289 120 q 354 168 405 236 q 408 239 412 239 q 414 239 416 238 q 417 236 417 233 q 417 230 416 228 q 364 159 298 110 q 231 60 157 22 q 170 -4 171 -41 q 171 -88 142 -146 q 117 -193 74 -233 q 1 -300 -99 -331 q -144 -345 -184 -345 z m -48 29 q -35 29 0 46 l 13 54 q -2 59 -15 59 q -35 59 -47 51 q -59 43 -59 36 q -59 29 -48 29 z m -191 -329 q -160 -329 -128 -314 q -70 -288 -19 -232 q 28 -181 55 -123 q 76 -76 76 -36 q 76 -26 75 -18 l -36 -66 l -80 -86 q -146 -117 -187 -151 q -227 -184 -244 -216 q -259 -243 -259 -266 q -259 -312 -221 -325 q -207 -329 -191 -329 z"},"B":{"x_min":0,"x_max":1238,"ha":1238,"o":"m 822 3 q 857 3 892 27 q 926 52 955 90 q 978 122 993 156 q 977 156 961 156 q 945 155 930 152 q 839 130 801 86 q 784 67 779 48 q 777 42 777 35 q 777 26 781 19 q 783 14 788 9 q 789 9 789 9 q 790 9 790 9 q 806 3 822 3 z m 564 325 q 597 325 628 346 q 632 371 632 395 q 632 407 631 419 q 625 514 570 585 q 549 611 522 631 q 481 586 460 539 q 441 492 441 451 q 441 437 443 423 q 450 387 474 361 q 499 335 544 327 q 554 325 564 325 z m 358 13 q 447 16 518 55 q 590 95 648 159 q 707 224 755 300 q 804 375 847 451 q 892 531 935 596 q 978 661 1024 696 q 921 746 809 746 q 737 746 668 723 q 600 701 544 653 q 539 647 532 642 q 560 621 581 594 q 639 519 646 421 l 646 399 q 646 379 645 359 q 685 397 709 490 q 709 492 711 494 q 713 495 715 495 l 717 495 q 720 495 721 493 q 723 491 723 488 l 723 486 q 698 390 654 348 q 648 342 642 337 q 633 282 608 230 q 560 126 449 69 l 446 68 q 444 68 442 70 q 440 71 439 73 l 438 76 q 438 81 443 83 q 496 108 534 148 q 572 188 596 237 q 616 280 625 327 q 595 310 565 310 q 553 310 542 312 q 492 322 464 351 q 436 380 429 421 q 426 435 426 450 q 426 495 447 544 q 468 594 510 639 q 474 662 428 672 q 394 680 362 680 q 305 680 254 659 q 204 637 162 600 q 120 563 89 515 q 37 433 23 339 q 20 314 20 289 q 20 224 45 166 l 46 165 q 66 121 105 86 q 144 52 203 32 q 261 13 342 13 z m 856 -23 q 825 -23 794 -11 q 775 -3 768 12 q 763 22 763 35 q 763 43 765 52 q 771 74 791 96 q 811 118 845 137 q 879 156 928 167 q 960 171 998 171 l 999 171 q 1006 188 1010 206 q 1017 233 1017 257 q 1017 286 1006 309 q 1000 319 992 327 q 983 324 973 323 q 962 321 954 321 q 935 321 928 329 q 921 337 921 348 q 921 355 924 363 q 933 384 961 384 q 968 384 977 383 q 979 385 981 387 q 982 388 983 389 q 1024 427 1054 482 q 1083 538 1085 593 q 1085 617 1078 638 q 1071 659 1054 675 q 1028 644 999 593 q 971 542 939 481 q 893 389 836 295 q 780 201 710 129 l 710 129 q 628 59 548 33 q 507 19 455 9 q 403 0 358 -2 l 343 -2 q 259 -2 197 19 q 136 40 95 76 q 55 112 33 159 l 33 160 q 5 220 5 288 q 5 314 9 341 q 23 438 78 523 q 109 573 153 612 q 196 650 249 672 q 302 694 362 694 q 396 694 431 687 q 481 675 520 649 l 535 664 q 583 707 651 734 q 719 761 804 761 q 856 761 914 749 q 972 736 1036 709 l 1038 708 q 1038 708 1039 707 q 1075 729 1128 747 q 1181 764 1229 764 q 1248 764 1265 760 q 1307 750 1324 715 q 1332 699 1332 675 l 1332 671 q 1332 668 1330 666 q 1328 664 1326 664 l 1325 664 q 1322 664 1320 666 q 1318 668 1318 671 l 1318 676 q 1318 695 1311 709 q 1297 738 1262 746 q 1249 749 1234 749 q 1191 749 1141 730 q 1091 712 1066 688 q 1125 637 1135 572 q 1138 555 1138 538 q 1138 516 1133 494 q 1125 455 1105 421 q 1082 381 1044 353 q 1075 330 1089 299 q 1103 269 1103 234 l 1103 222 q 1101 200 1095 178 q 1157 187 1245 236 l 1249 237 q 1252 237 1255 233 l 1256 229 q 1256 226 1252 224 q 1156 170 1090 162 q 1084 146 1076 131 q 1053 86 1016 50 q 982 17 941 -3 q 900 -23 856 -23 z"},"K":{"x_min":0,"x_max":1194,"ha":1194,"o":"m 356 13 q 474 19 562 85 q 650 151 717 249 q 785 346 840 446 q 841 448 842 450 q 881 520 919 579 q 957 638 997 675 q 938 681 868 695 q 812 706 750 714 q 689 723 629 723 q 580 723 533 714 q 485 706 443 684 q 530 658 579 595 q 637 521 644 422 l 645 396 q 645 312 607 231 q 583 181 542 139 q 502 97 447 70 l 444 70 q 440 70 438 74 q 437 75 437 77 q 437 81 441 84 q 494 109 532 149 q 571 189 594 238 q 630 317 630 398 l 629 421 q 623 515 568 586 q 518 651 426 674 l 425 674 q 396 656 369 629 q 319 577 300 515 q 286 473 286 435 q 286 414 290 396 q 297 367 314 348 l 314 348 q 331 331 356 327 q 365 325 373 325 q 403 325 428 342 q 452 359 471 385 q 493 416 510 450 q 526 485 537 515 q 538 517 540 518 q 542 520 543 520 l 546 519 q 548 518 550 516 q 551 514 551 512 l 550 510 q 539 479 522 444 q 505 408 482 376 q 461 347 434 329 q 407 311 373 311 q 364 311 354 312 q 323 317 304 338 l 304 338 q 285 360 276 392 q 271 413 271 436 q 271 476 286 520 q 307 584 358 639 q 380 662 404 678 q 382 681 360 681 q 303 681 253 660 q 202 638 160 601 q 119 564 88 517 q 35 435 22 340 q 18 314 18 289 q 18 224 44 167 l 44 166 q 65 122 104 87 q 143 53 202 33 q 261 13 342 13 z m 1066 689 q 1086 692 1095 695 q 1104 699 1104 701 q 1104 702 1099 703 q 1094 703 1085 699 q 1076 696 1066 689 z m 357 -1 l 343 -1 q 258 -1 196 20 q 135 41 94 77 q 53 113 31 160 l 31 160 q 4 223 4 292 q 4 317 7 342 q 21 439 76 524 q 108 574 151 613 q 194 651 247 673 q 300 696 359 696 q 390 696 422 689 q 469 716 522 727 q 574 738 629 738 q 690 738 752 729 q 813 720 871 709 q 950 693 1013 688 q 1036 705 1055 711 q 1075 718 1090 718 q 1120 718 1122 701 q 1122 692 1105 684 q 1088 675 1049 673 q 1022 643 993 591 q 964 540 932 476 q 886 385 832 292 q 777 200 708 131 l 708 130 q 667 94 627 71 q 586 48 547 35 q 505 20 454 10 q 402 0 357 -1 z m 917 0 q 903 0 892 3 q 868 10 859 34 q 855 45 855 59 q 855 67 857 78 q 868 130 899 192 q 913 222 924 250 q 936 278 939 301 q 940 308 940 314 q 940 333 930 344 q 920 356 896 361 q 893 361 891 363 q 890 365 890 368 l 890 369 q 890 371 892 373 q 894 375 896 375 q 978 397 1035 433 q 1092 468 1132 509 q 1173 550 1204 588 q 1230 620 1256 645 q 1281 671 1309 686 q 1336 701 1372 701 q 1375 701 1377 699 q 1379 697 1379 694 q 1379 690 1377 688 q 1375 687 1372 687 q 1355 684 1337 664 q 1318 643 1296 611 q 1266 568 1222 519 q 1178 469 1111 426 q 1044 383 945 361 q 967 350 976 331 q 985 312 985 287 q 985 275 983 262 q 975 211 955 157 q 938 109 931 71 q 930 60 930 52 q 930 38 934 32 q 938 25 945 24 l 954 23 q 974 23 997 36 q 1020 48 1040 64 q 1060 80 1073 93 q 1100 117 1122 143 l 1172 202 l 1196 230 q 1198 233 1201 233 q 1204 233 1206 231 q 1208 229 1208 226 q 1208 223 1207 221 q 1203 217 1199 212 q 1192 204 1183 193 q 1161 166 1132 133 q 1110 107 1083 82 q 1052 52 1017 31 q 982 9 939 1 q 928 0 917 0 z"},"R":{"x_min":0,"x_max":1181,"ha":1181,"o":"m 354 -6 l 337 -6 q 253 -6 192 15 q 130 36 90 72 q 49 108 28 155 l 27 156 q 0 217 0 285 q 0 341 17 398 q 34 456 65 508 q 96 560 140 601 q 184 642 239 666 q 293 690 357 690 q 398 690 439 679 q 480 668 515 646 q 568 697 637 727 q 705 757 798 757 q 909 757 1031 705 l 1034 703 q 1077 730 1125 746 q 1174 763 1218 763 q 1246 763 1270 754 q 1293 745 1308 726 q 1323 707 1323 675 q 1323 669 1322 666 q 1321 662 1316 662 q 1313 662 1311 664 q 1309 666 1309 668 l 1309 673 q 1309 708 1287 727 q 1266 747 1229 747 q 1189 747 1140 729 q 1091 711 1064 688 q 1129 648 1161 600 q 1193 551 1193 504 q 1193 465 1170 431 q 1146 396 1096 375 q 1046 354 968 354 l 948 354 q 976 332 976 289 q 976 260 966 225 q 957 190 945 155 q 928 107 921 71 q 919 60 919 51 q 919 26 935 24 l 944 23 q 979 23 1030 64 q 1085 108 1144 180 l 1187 230 q 1189 233 1192 233 q 1194 233 1197 231 q 1199 229 1199 226 q 1199 223 1197 221 l 1163 180 q 1145 157 1124 134 q 1074 77 1024 42 q 965 0 908 0 q 880 0 863 14 q 846 28 846 60 q 846 87 859 122 q 873 157 890 193 q 906 228 918 260 q 931 292 931 315 q 931 334 921 345 q 912 356 890 359 q 888 360 885 361 q 883 361 882 363 q 880 364 880 367 q 880 375 887 375 q 920 370 937 370 q 982 370 1017 385 q 1051 401 1074 426 q 1097 451 1108 482 q 1119 513 1119 544 q 1119 582 1103 616 q 1086 650 1052 675 q 1027 646 998 595 q 970 545 937 483 q 889 390 832 293 q 774 197 704 125 q 622 55 543 29 q 504 16 451 6 q 398 -4 354 -6 z m 353 9 q 470 14 559 80 q 647 146 715 245 q 783 344 840 446 q 886 526 929 592 q 973 657 1019 693 q 907 742 796 742 q 727 742 661 720 q 596 698 540 649 q 532 643 527 638 q 585 593 613 527 q 641 460 641 390 q 641 373 639 355 q 680 394 704 486 q 705 491 710 491 q 717 491 717 484 l 717 482 q 690 375 636 333 q 624 249 574 177 q 524 106 443 65 l 440 64 q 433 64 433 72 q 433 76 437 79 q 515 117 560 182 q 605 247 620 323 q 590 306 559 306 q 547 306 536 309 q 478 320 449 357 q 421 395 421 446 q 421 491 442 541 q 464 591 504 635 q 471 656 432 666 q 394 676 357 676 q 284 676 222 642 q 159 607 113 551 q 66 494 41 425 q 15 355 15 285 q 15 220 40 162 l 40 161 q 61 117 99 83 q 138 48 197 29 q 256 9 337 9 z m 559 321 q 592 321 623 342 q 626 367 626 391 q 626 463 598 525 q 570 587 517 627 q 476 583 456 536 q 436 489 436 446 q 436 400 460 367 q 485 333 538 323 q 548 321 559 321 z"},"T":{"x_min":0,"x_max":898,"ha":898,"o":"m 555 333 q 577 333 596 342 q 615 351 631 366 q 632 381 632 396 q 632 408 631 421 q 625 515 570 586 q 556 604 537 621 q 500 574 483 523 q 471 487 471 443 q 471 418 477 395 q 483 371 499 355 q 514 339 540 334 q 547 333 555 333 z m 359 -1 l 345 -1 q 260 -1 198 20 q 137 41 96 77 q 55 113 33 160 l 33 160 q 6 222 6 290 q 6 316 10 342 q 23 439 78 524 q 110 574 154 613 q 197 651 250 674 q 303 696 363 696 q 396 696 432 688 q 475 678 509 658 q 520 670 531 683 q 581 733 642 753 q 702 773 768 773 q 836 773 906 758 q 976 744 1040 727 q 1053 724 1064 721 q 1114 708 1156 700 q 1190 695 1219 695 q 1243 695 1262 699 q 1282 703 1295 713 q 1297 714 1300 714 q 1303 714 1305 711 q 1307 709 1307 707 q 1307 704 1304 702 q 1288 690 1265 686 q 1242 681 1216 681 q 1178 681 1139 687 q 1100 693 1068 700 q 1060 701 1052 703 q 995 713 934 722 q 873 731 813 731 q 764 731 718 723 q 671 714 630 694 q 588 673 552 637 l 547 631 q 566 615 582 595 q 639 521 646 422 l 647 398 l 646 382 l 655 393 q 677 423 693 458 q 709 493 720 523 q 723 527 727 527 l 729 527 q 734 524 734 520 l 734 518 q 722 487 706 452 q 689 416 666 384 q 656 371 645 359 q 639 293 609 231 q 585 181 545 139 q 505 97 449 70 l 446 70 q 442 70 440 74 l 439 77 q 439 81 443 84 q 497 109 535 149 q 573 189 596 238 q 621 290 628 345 q 598 318 556 318 q 547 318 538 320 q 504 326 485 350 q 466 373 458 406 q 451 440 451 474 q 451 521 460 559 q 472 603 501 646 q 469 665 429 674 q 396 681 364 681 q 306 681 255 660 q 205 638 163 601 q 121 564 90 517 q 38 435 24 340 q 21 315 21 290 q 21 225 46 167 l 46 166 q 67 122 106 87 q 145 53 204 33 q 263 13 345 13 l 359 13 q 476 19 562 81 q 648 144 714 236 q 779 328 833 422 q 838 431 844 441 q 861 471 885 510 q 909 549 939 587 q 969 624 1002 649 q 1036 674 1071 674 q 1085 674 1101 668 q 1106 666 1106 661 l 1105 659 q 1105 657 1103 655 q 1102 654 1099 654 l 1097 654 q 1087 657 1079 657 q 1043 652 1006 594 q 968 536 924 450 q 881 366 829 280 q 776 194 710 131 l 710 130 q 669 94 629 71 q 588 48 549 35 q 507 20 456 10 q 404 0 359 -1 z"},"P":{"x_min":0,"x_max":1111,"ha":1111,"o":"m 360 9 q 448 12 520 52 q 591 91 650 156 q 708 220 757 296 q 806 372 848 447 q 894 527 937 592 q 979 657 1025 693 q 921 742 809 742 q 737 742 670 720 q 602 697 546 649 l 534 638 q 562 617 583 590 q 640 515 647 417 l 647 392 q 647 374 646 355 q 687 394 710 486 q 711 488 713 490 q 714 491 717 491 l 719 491 q 721 491 723 489 q 724 487 724 484 l 724 482 q 700 386 655 344 q 649 338 643 333 q 635 278 610 227 q 586 176 546 134 q 506 93 450 65 l 447 64 q 445 64 444 66 q 442 67 441 69 l 440 72 q 440 77 444 79 q 498 104 536 144 q 574 184 597 233 q 618 276 626 323 q 597 306 566 306 q 555 306 543 309 q 493 318 465 347 q 438 376 430 417 q 428 431 428 446 q 428 491 449 540 q 470 590 511 635 q 476 658 430 668 q 396 676 364 676 q 307 676 256 655 q 205 633 164 596 q 122 559 91 511 q 39 429 25 335 q 21 310 21 285 q 21 220 47 162 l 47 161 q 68 117 107 83 q 146 48 204 29 q 263 9 344 9 z m 869 292 q 927 292 973 320 q 1020 348 1051 393 q 1082 436 1096 484 q 1105 519 1105 553 q 1105 566 1104 578 q 1098 635 1057 672 q 1030 641 1001 590 q 973 539 940 477 q 895 386 839 294 q 854 292 869 292 z m 566 321 q 598 321 630 342 q 633 367 633 391 q 633 403 632 416 q 626 510 572 581 q 551 607 523 627 q 482 583 461 535 q 442 488 442 447 q 442 433 445 419 q 451 383 476 357 q 500 332 545 323 q 556 321 566 321 z m 360 -6 l 344 -6 q 260 -6 199 15 q 137 36 97 72 q 56 108 34 155 l 34 156 q 7 217 7 285 q 7 311 11 337 q 25 434 79 520 q 111 569 154 608 q 198 646 251 668 q 304 690 364 690 q 397 690 433 683 q 483 671 521 646 q 529 653 537 660 q 585 703 653 730 q 720 757 805 757 q 857 757 915 745 q 974 732 1038 705 l 1041 703 q 1042 704 1044 705 q 1046 706 1048 707 q 1103 744 1173 758 q 1199 764 1223 764 q 1243 764 1261 759 q 1303 750 1320 714 q 1328 698 1328 674 l 1328 670 q 1328 667 1326 665 q 1324 663 1321 663 q 1318 663 1316 665 q 1314 667 1314 670 l 1314 674 q 1314 694 1307 708 q 1293 737 1258 745 q 1243 749 1227 749 q 1186 749 1142 730 q 1098 712 1070 687 q 1153 631 1171 551 q 1177 528 1177 504 q 1177 473 1167 443 q 1150 390 1105 348 q 1069 315 1016 295 q 963 275 894 275 q 864 275 831 280 q 777 192 712 125 l 711 125 q 629 55 550 29 q 511 16 458 6 q 405 -4 360 -6 z"},"|":{"x_min":0,"x_max":459,"ha":459,"o":"m 83 -31 l 23 -31 q 21 -31 18 -29 q 16 -27 16 -24 q 16 -23 16 -22 q 16 -21 17 -20 q 43 27 86 106 q 156 233 237 376 q 317 520 374 604 q 415 667 425 689 l 430 696 q 430 697 430 697 q 431 697 431 698 q 434 700 437 700 l 439 700 q 441 699 442 697 q 443 695 443 693 l 443 690 q 401 586 304 389 q 233 248 171 128 q 109 8 89 -28 q 87 -31 83 -31 z"},"t":{"x_min":0,"x_max":228,"ha":228,"o":"m -26 0 q -54 0 -68 23 q -80 40 -80 64 q -80 93 -64 122 l 43 310 l 2 310 q 0 310 -3 312 q -5 314 -5 317 q -5 320 -3 322 q 0 324 2 324 l 52 324 q 80 326 115 359 q 151 392 213 476 l 224 469 l 142 324 l 182 324 q 189 324 189 317 q 189 314 188 312 q 186 310 182 310 l 133 310 l -12 55 q -17 45 -17 38 q -16 28 -6 28 l -2 28 q 16 28 55 56 q 91 84 128 122 q 163 158 232 232 q 235 234 238 234 q 240 234 243 232 q 245 230 245 227 q 245 225 243 222 l 209 187 q 139 108 63 44 q 21 10 -13 1 q -20 0 -26 0 z"},"M":{"x_min":0,"x_max":1600,"ha":1600,"o":"m 357 13 q 475 19 562 85 q 650 151 718 249 q 785 346 840 446 q 841 448 842 450 q 882 520 920 579 q 958 638 998 675 q 939 681 869 695 q 812 706 751 714 q 690 723 630 723 q 581 723 533 714 q 486 706 443 684 q 531 659 580 595 q 638 521 644 422 l 645 396 q 645 312 607 231 q 583 181 543 139 q 503 97 447 70 l 444 70 q 440 70 438 74 l 438 77 q 438 81 441 84 q 495 109 533 149 q 571 189 595 238 q 631 317 631 398 l 630 421 q 623 515 569 586 q 519 651 427 674 l 425 674 q 396 656 369 629 q 320 577 300 515 q 286 473 286 436 q 286 414 291 396 q 297 367 314 348 l 314 348 q 331 331 356 327 q 365 325 374 325 q 404 325 428 342 q 452 359 471 385 q 493 416 510 450 q 526 485 537 515 q 540 520 544 520 l 546 519 q 548 518 550 516 q 551 514 551 512 l 550 510 q 539 479 522 444 q 505 408 482 376 q 461 347 435 329 q 408 311 374 311 q 364 311 354 312 q 324 317 304 338 q 285 360 276 392 q 271 413 271 436 q 271 476 286 520 q 307 584 358 639 q 380 662 405 678 q 382 681 361 681 q 304 681 253 660 q 202 638 161 601 q 119 564 88 517 q 36 435 22 340 q 19 314 19 289 q 19 224 45 167 l 45 166 q 65 122 104 87 q 143 53 202 33 q 261 13 343 13 z m 1067 689 q 1087 692 1095 695 q 1104 699 1104 701 q 1104 702 1099 703 q 1094 703 1085 699 q 1077 696 1067 689 z m 954 -12 q 952 -12 950 -11 l 947 9 q 988 90 1003 153 q 1019 216 1019 268 q 1019 300 1015 330 q 1011 359 1006 388 q 1001 417 998 447 q 994 477 994 509 q 994 557 1006 612 q 972 554 932 476 q 887 385 832 292 q 777 200 709 131 l 709 130 q 668 94 627 71 q 586 48 548 35 q 506 20 454 10 q 402 0 357 -1 l 343 -1 q 258 -1 197 20 q 135 41 94 77 q 53 113 32 160 l 32 160 q 4 223 4 292 q 4 317 8 342 q 22 439 77 524 q 108 574 152 613 q 195 651 248 673 q 300 696 360 696 q 391 696 423 689 q 470 716 522 727 q 575 738 629 738 q 690 738 752 729 q 813 720 871 709 q 951 693 1014 688 q 1036 705 1056 711 q 1076 718 1091 718 q 1120 718 1123 702 q 1123 693 1107 685 q 1092 676 1057 673 q 1044 620 1044 575 q 1044 533 1052 497 q 1059 460 1069 425 l 1070 422 q 1081 384 1089 344 q 1097 304 1097 257 q 1097 237 1095 215 q 1174 323 1234 392 q 1294 464 1347 540 q 1399 615 1459 737 q 1462 741 1466 741 l 1469 740 q 1471 739 1472 738 q 1474 736 1474 734 l 1473 731 q 1431 643 1388 521 q 1346 398 1320 304 q 1290 193 1285 111 l 1285 104 q 1285 69 1293 45 q 1302 22 1321 15 q 1328 13 1335 13 q 1352 13 1371 21 q 1390 28 1403 36 q 1441 56 1474 85 q 1506 114 1531 143 q 1559 174 1582 201 q 1582 202 1582 202 q 1584 205 1586 208 q 1596 220 1605 230 q 1608 233 1611 233 q 1613 233 1616 231 q 1618 229 1618 226 q 1618 223 1617 221 q 1607 210 1595 196 q 1594 195 1593 193 q 1571 166 1542 133 q 1517 103 1483 73 q 1449 44 1410 23 q 1387 11 1363 4 q 1339 -3 1314 -3 q 1300 -3 1287 -1 l 1272 3 q 1227 23 1218 83 q 1215 101 1215 122 q 1215 166 1227 219 q 1250 328 1291 440 l 1245 383 l 1239 376 q 1188 314 1120 224 q 1052 134 960 -9 q 958 -12 954 -12 z"},"g":{"x_min":0,"x_max":345,"ha":345,"o":"m 33 18 q 42 18 62 33 q 101 62 118 86 q 141 117 154 151 q 199 244 225 295 q 210 307 195 307 q 174 307 148 285 q 75 225 39 133 q 21 84 21 51 q 21 18 33 18 z m -144 -371 q -87 -356 68 -25 q 12 -59 -49 -104 q -185 -206 -185 -307 q -185 -333 -176 -351 q -166 -371 -147 -371 z m -147 -385 q -174 -385 -188 -357 q -199 -337 -199 -307 q -199 -196 -53 -89 q 12 -42 70 -7 l 81 0 q 93 26 107 53 q 89 35 72 23 q 39 0 16 0 q -12 0 -27 19 q -48 45 -48 90 q -48 169 5 238 q 58 307 155 322 q 166 324 176 324 q 207 324 232 308 q 235 314 238 319 q 241 323 245 323 l 317 323 q 324 323 324 316 l 325 314 q 325 310 195 83 q 299 168 349 231 q 351 234 354 234 q 356 234 359 232 q 361 230 361 227 q 361 225 360 223 q 303 150 175 49 l 119 -47 q 37 -186 -26 -281 q -74 -351 -115 -375 q -115 -375 -116 -375 l -122 -378 q -134 -385 -147 -385 z"},"j":{"x_min":0,"x_max":147,"ha":147,"o":"m -339 -371 q -296 -360 -200 -170 q -143 -58 -128 -25 q -185 -59 -245 -104 q -381 -206 -381 -307 q -381 -332 -372 -351 q -361 -371 -343 -371 z m 110 392 q 92 392 82 404 q 74 413 74 429 l 74 434 q 79 452 92 463 q 104 474 121 474 q 137 474 148 462 q 157 452 157 438 q 157 418 140 403 q 126 392 110 392 z m -344 -385 q -370 -385 -385 -357 q -395 -337 -395 -307 q -395 -196 -249 -89 q -184 -42 -126 -7 l -116 0 q -55 123 -36 164 q 41 323 49 323 l 122 323 q 124 323 126 321 q 128 319 128 317 q 128 315 128 314 l 128 312 q 115 289 81 228 q 46 166 -1 83 q 30 110 40 118 q 113 182 152 231 q 155 234 158 234 q 161 234 163 232 q 165 230 165 227 q 165 225 164 223 q 107 150 -21 49 q -142 -160 -222 -281 q -262 -339 -301 -368 q -324 -385 -344 -385 z"},"i":{"x_min":0,"x_max":224,"ha":224,"o":"m 123 392 q 105 392 95 404 q 87 413 87 426 q 87 438 93 449 q 101 464 118 471 q 125 474 133 474 q 149 474 161 462 q 169 452 169 438 q 169 428 163 416 q 155 401 138 395 q 131 392 123 392 z m -30 0 q -58 0 -72 23 q -83 40 -83 66 q -83 94 -68 122 l 43 317 q 46 321 50 321 l 123 321 q 126 321 128 319 q 130 317 130 314 q 130 312 -17 55 q -21 45 -21 38 q -21 28 -10 28 q 43 28 183 183 l 195 196 q 230 234 234 234 q 240 234 241 228 q 241 225 239 222 q 224 205 206 187 q 175 152 134 111 q 40 16 -17 1 q -24 0 -30 0 z"},"y":{"x_min":0,"x_max":318,"ha":318,"o":"m -170 -371 q -145 -364 -105 -302 q -65 -239 -27 -164 q 11 -89 32 -44 q 38 -32 42 -25 q 2 -49 -42 -80 q -85 -110 -124 -145 q -163 -181 -187 -221 q -211 -261 -211 -306 q -211 -314 -210 -323 q -208 -339 -203 -351 q -197 -361 -188 -367 q -182 -371 -173 -371 z m 64 44 q 64 43 63 43 q 22 10 -12 1 q -19 0 -25 0 q -40 0 -51 6 q -61 13 -68 23 q -73 33 -77 45 q -79 55 -79 64 q -79 93 -63 122 l 49 317 q 51 321 55 321 l 128 321 q 131 321 133 319 q 135 316 135 313 q 135 312 134 310 l -11 55 q -16 46 -16 39 l -15 35 q -15 32 -12 30 q -4 25 4 25 q 21 25 40 40 q 60 56 77 77 q 95 99 109 119 q 122 139 127 151 q 132 160 136 169 q 190 280 211 319 q 214 323 218 323 l 291 323 q 293 323 295 321 q 297 319 298 316 l 298 315 q 298 313 297 312 q 285 289 250 228 q 215 166 168 83 q 188 101 209 118 q 283 182 322 231 q 324 234 328 234 q 330 234 332 233 q 334 230 334 227 q 334 225 333 223 q 293 172 219 107 q 184 77 148 49 l 92 -47 q 10 -186 -53 -281 q -79 -317 -102 -341 q -124 -364 -142 -375 l -144 -375 q -144 -375 -145 -376 q -146 -377 -146 -377 q -147 -378 -148 -378 q -159 -384 -168 -385 l -175 -385 q -187 -385 -196 -379 q -208 -371 -215 -357 q -222 -343 -225 -324 q -226 -314 -226 -305 q -226 -256 -199 -213 q -172 -170 -131 -132 q -90 -95 -44 -63 q 2 -32 43 -7 l 54 0 q 69 30 83 59 q 74 52 65 45 q 65 44 64 44 z"},"@":{"x_min":0,"x_max":791,"ha":791,"o":"m 252 21 q 259 21 273 32 l 276 34 q 300 52 312 68 q 324 84 335 104 l 445 297 q 430 310 415 310 q 389 310 357 281 q 291 221 257 136 q 239 88 239 54 q 239 41 242 31 q 246 21 252 21 z m 298 -164 q 168 -164 98 -92 q 28 -19 28 103 q 28 194 71 292 q 98 354 140 408 q 182 463 237 506 q 293 548 361 573 q 429 598 507 598 q 625 598 673 522 q 703 473 703 409 q 702 343 673 269 q 635 174 562 99 q 489 24 396 1 q 388 0 381 0 q 367 0 357 6 q 346 13 340 23 q 330 40 330 62 l 330 67 q 276 3 233 3 q 207 3 191 23 q 172 45 170 84 l 170 94 q 170 127 182 164 q 195 206 224 243 q 252 280 295 302 l 296 302 q 316 312 343 320 q 369 328 395 328 q 431 328 452 310 q 454 312 455 315 q 456 317 457 319 q 458 321 462 321 l 535 321 q 538 321 541 319 q 543 316 543 313 q 543 312 396 55 q 392 46 392 39 q 392 26 409 26 q 447 26 487 53 q 527 81 562 122 q 597 162 622 203 q 648 245 660 274 q 688 344 688 412 q 688 471 662 515 q 617 584 507 584 q 431 584 365 560 q 299 536 245 494 q 191 453 151 399 q 110 346 84 286 q 42 192 42 100 q 42 -14 109 -82 q 175 -149 298 -149 q 374 -149 458 -113 q 542 -77 620 -10 q 622 -8 625 -8 q 627 -8 630 -10 q 632 -13 632 -15 q 632 -18 629 -21 q 549 -89 463 -126 q 376 -164 298 -164 z"},".":{"x_min":0,"x_max":230,"ha":230,"o":"m 45 0 q 37 0 30 4 q 22 7 18 13 q 13 19 10 27 q 10 29 10 31 q 9 33 9 36 l 10 43 q 11 51 15 58 q 20 66 26 72 q 32 77 40 80 q 48 83 56 83 q 64 83 72 80 q 79 77 83 71 q 88 64 91 57 l 92 47 q 91 35 86 25 q 82 18 75 12 q 69 6 61 3 q 53 0 45 0 z"},"p":{"x_min":0,"x_max":413,"ha":413,"o":"m 64 54 q 79 65 92 80 q 139 131 165 193 q 184 241 184 274 q 184 284 182 292 q 178 306 169 306 q 157 306 138 287 q 119 267 101 241 q 82 216 69 194 q 55 173 52 167 l -8 59 q -1 63 8 65 q 15 66 23 66 q 43 66 64 54 z m 5 25 q 17 25 31 32 q 44 40 52 45 q 37 52 23 52 q 17 52 11 51 q -1 47 -7 42 q -10 39 -10 36 l -10 34 q -5 25 5 25 z m -235 -338 l -237 -337 l -239 -338 l -309 -338 q -312 -338 -313 -336 q -315 -334 -316 -331 l -316 -329 q -316 -328 -315 -327 q -303 -303 -236 -184 q -169 -64 -91 76 q -88 80 -86 84 q 0 236 46 316 q 47 317 47 318 q 48 318 49 319 q 52 321 54 321 l 126 321 q 130 321 132 319 q 134 317 134 314 q 134 312 133 310 l 123 291 q 125 292 126 294 q 133 300 139 304 q 167 324 189 324 l 191 324 q 217 322 232 304 q 250 281 253 243 l 253 235 q 253 202 241 163 q 228 121 199 83 q 171 46 127 24 l 126 24 q 121 21 115 20 q 113 19 111 18 q 120 16 130 16 q 153 16 180 27 q 233 49 287 94 q 375 169 415 231 q 418 234 421 234 q 423 234 425 233 q 429 231 429 227 q 429 225 427 223 q 386 160 295 83 q 240 37 186 14 q 156 1 130 1 q 109 1 91 11 q 75 7 61 4 q 49 3 40 3 q 25 3 14 6 q -18 14 -23 28 q -23 29 -24 30 q -24 30 -24 31 q -54 -23 -83 -75 q -138 -174 -179 -246 q -220 -318 -230 -334 q -232 -338 -235 -338 z"},"X":{"x_min":0,"x_max":1060,"ha":1060,"o":"m 358 13 q 440 16 507 50 q 573 84 628 140 q 683 195 729 263 q 716 319 711 377 q 705 436 703 491 q 699 563 689 615 q 678 666 652 693 q 626 720 574 720 q 529 720 461 699 q 445 694 430 688 l 431 688 q 528 664 581 595 q 639 521 645 422 l 646 397 q 646 313 608 231 q 584 181 544 139 q 504 97 449 70 l 446 70 q 441 70 439 74 l 438 77 q 438 79 439 81 q 440 83 442 84 q 496 109 534 149 q 572 189 595 238 q 632 316 632 396 l 631 421 q 625 515 570 586 q 520 651 428 674 l 408 678 q 345 646 298 593 q 260 549 243 505 q 226 461 226 421 q 226 375 244 337 q 271 280 320 249 q 362 222 407 222 q 415 222 423 223 q 463 227 499 259 q 534 291 555 355 q 556 357 558 358 q 560 360 562 360 l 564 359 q 566 359 568 357 q 569 354 569 352 l 569 351 q 545 281 507 247 q 469 213 424 208 q 415 208 406 208 q 357 208 312 236 q 259 270 231 331 q 211 372 211 420 q 211 463 229 510 q 248 556 288 604 q 329 650 382 681 q 373 681 363 681 q 306 681 255 660 q 204 639 162 602 q 120 564 89 517 q 37 435 23 340 q 20 315 20 291 q 20 225 45 167 l 45 166 q 66 122 105 87 q 144 53 203 33 q 263 13 344 13 z m 1000 -3 l 997 -3 q 962 8 922 28 q 882 47 854 67 q 799 104 757 177 l 755 181 q 675 79 548 35 q 506 20 455 10 q 403 0 358 -1 l 344 -1 q 259 -1 198 20 q 136 41 95 77 q 54 113 33 160 l 32 160 q 6 222 6 290 q 6 316 9 342 q 23 439 77 524 q 109 574 153 612 q 196 651 249 673 q 302 696 361 696 q 383 696 405 692 q 431 705 457 713 q 532 736 587 736 q 661 736 703 698 q 746 661 766 592 q 787 523 793 430 l 798 373 q 812 396 826 419 q 833 433 841 446 q 849 459 855 471 q 893 539 934 598 q 974 657 1029 698 q 1084 740 1166 756 q 1191 761 1215 761 q 1235 761 1253 757 q 1295 748 1313 712 q 1321 695 1321 672 l 1321 668 q 1321 665 1319 663 q 1316 661 1313 661 q 1311 661 1309 663 q 1307 666 1307 668 l 1307 672 q 1307 692 1300 706 q 1286 735 1250 743 q 1234 747 1216 747 q 1193 747 1168 742 q 1112 729 1050 655 q 987 581 933 476 q 933 475 932 473 q 879 367 812 261 q 827 174 869 107 q 912 40 1001 11 q 1006 8 1006 3 l 1006 2 q 1004 -3 1000 -3 z"},"*":{"x_min":0,"x_max":500,"ha":500,"o":"m 136 352 q 119 354 115 363 q 113 367 113 371 q 113 376 116 381 l 116 382 q 130 402 158 437 q 217 510 230 521 l 201 518 q 147 510 95 507 l 94 507 q 68 512 59 532 q 56 538 55 544 q 55 567 75 567 q 97 567 139 562 q 203 555 220 552 l 216 558 q 182 602 153 646 q 148 652 148 665 q 148 681 158 695 q 167 708 178 709 q 188 709 194 701 q 211 667 248 572 l 250 566 q 275 618 312 685 q 319 696 334 702 q 346 707 357 707 q 364 707 369 704 q 380 700 380 688 q 380 683 377 678 l 377 677 q 361 653 303 583 l 279 553 q 294 556 311 558 q 364 565 416 569 l 417 569 q 443 564 452 544 q 456 537 456 529 q 456 523 454 519 q 449 509 437 508 q 417 508 383 512 q 348 516 315 520 q 304 521 294 523 q 284 525 273 527 l 281 517 q 312 479 354 417 l 355 416 q 358 408 358 399 q 358 382 350 369 q 347 367 345 364 q 344 361 340 358 q 335 354 327 354 q 319 354 313 362 q 304 379 291 411 q 256 495 251 513 q 229 461 181 375 q 181 374 181 374 q 171 362 159 357 q 146 352 136 352 z"},"Y":{"x_min":0,"x_max":1012,"ha":1012,"o":"m 356 -202 q 467 -198 546 -146 q 625 -95 685 -13 q 744 68 794 162 l 830 224 q 770 157 693 136 q 669 129 644 129 q 624 129 605 135 q 587 141 574 156 q 556 174 549 193 q 541 213 541 234 q 541 272 561 317 q 581 361 610 414 q 636 460 660 509 q 684 557 700 603 q 716 649 716 687 q 716 719 702 743 q 687 768 653 781 q 620 795 562 795 q 532 795 495 791 q 372 776 282 688 q 272 678 263 668 q 225 624 208 582 q 191 540 191 503 q 191 471 203 443 q 205 441 206 437 q 257 467 308 477 q 337 482 365 482 q 434 482 485 451 q 497 477 504 510 q 504 513 506 514 q 508 516 511 516 l 512 516 q 518 514 518 508 l 518 507 q 510 471 497 443 q 501 438 505 436 q 529 415 540 390 q 550 365 550 338 q 550 300 531 260 q 503 201 449 153 q 394 106 329 84 q 295 74 262 74 q 222 74 186 92 q 149 110 122 152 q 120 154 120 156 q 120 159 123 162 q 125 163 127 163 q 131 163 133 160 q 159 122 192 105 q 226 88 263 88 q 293 88 324 98 q 387 119 439 165 q 492 210 519 267 q 536 303 536 338 q 536 362 526 384 q 517 406 496 424 q 495 425 494 426 q 492 428 490 429 q 469 390 440 367 q 412 344 379 336 q 362 332 344 332 q 305 332 268 352 q 226 374 200 417 q 159 390 122 347 q 101 324 83 294 q 18 187 18 76 l 18 67 q 19 1 47 -56 q 75 -112 134 -151 q 171 -175 223 -189 q 275 -202 343 -202 z m 344 347 q 360 347 376 351 q 437 363 479 438 l 478 438 q 430 468 364 468 q 338 468 311 462 q 261 453 212 424 q 236 385 275 364 q 308 347 344 347 z m 356 -216 l 340 -216 q 271 -216 219 -202 q 166 -188 126 -163 q 64 -124 34 -62 q 5 -3 3 67 l 3 74 q 3 189 70 302 q 90 332 110 357 q 150 402 193 430 q 192 434 190 438 q 177 468 177 504 q 177 543 195 587 q 212 631 252 677 q 262 688 271 698 q 366 789 493 806 q 530 810 562 810 q 638 810 683 789 q 728 767 747 730 q 767 693 767 646 q 767 597 750 542 q 732 486 705 431 q 678 376 647 328 q 643 320 638 313 q 615 278 600 250 q 580 214 580 189 q 580 174 587 163 q 599 152 613 148 q 626 144 642 144 q 667 144 692 151 q 758 170 811 226 q 865 281 911 360 q 957 438 1000 524 q 1001 526 1002 529 q 1055 633 1112 724 q 1169 815 1240 869 q 1242 870 1244 870 q 1248 870 1250 867 q 1251 865 1251 863 q 1251 859 1249 857 q 1164 744 1074 572 q 984 399 912 247 q 896 214 882 185 q 848 112 806 39 q 764 -34 708 -85 q 667 -121 626 -144 q 585 -167 546 -181 q 504 -195 453 -205 q 401 -215 356 -216 z"},"c":{"x_min":0,"x_max":352,"ha":352,"o":"m 54 0 q 3 0 -27 43 q -42 70 -42 103 q -42 137 -28 176 q -16 210 7 242 q 29 273 62 296 q 85 312 116 321 q 146 331 174 331 q 210 331 231 314 q 246 302 246 284 q 246 274 241 264 q 238 259 227 247 q 216 235 203 224 q 190 213 183 213 q 178 213 178 220 q 178 222 180 225 q 198 246 208 267 q 219 289 219 299 q 219 310 210 310 q 193 310 166 291 q 89 237 49 137 q 29 86 29 51 q 29 28 39 16 l 52 15 q 69 15 87 20 q 135 33 184 67 q 243 108 290 156 q 337 205 359 239 q 362 242 365 242 q 373 242 373 235 q 373 233 371 231 q 349 196 300 146 q 251 97 192 55 q 113 0 54 0 z"},"!":{"x_min":0,"x_max":328,"ha":328,"o":"m 91 133 l 89 133 q 84 135 84 140 l 84 143 q 155 321 293 579 q 338 663 362 702 q 374 719 403 719 q 420 719 434 713 q 448 708 448 699 q 448 697 447 695 q 413 633 315 478 q 242 360 167 250 q 123 184 105 151 q 103 147 102 144 l 103 142 q 103 138 100 136 q 98 134 95 134 q 93 133 91 133 z m 46 0 q 38 0 31 4 q 23 7 19 13 q 14 19 11 27 q 11 30 11 32 q 10 35 10 39 q 10 47 16 58 q 26 76 41 80 q 48 83 57 83 q 65 83 73 80 q 80 77 85 71 q 90 64 92 57 l 93 47 q 92 34 86 25 q 77 9 62 3 q 54 0 46 0 z"},"/":{"x_min":0,"x_max":575,"ha":575,"o":"m 85 0 l 13 0 q 11 0 9 2 q 6 4 6 7 l 6 9 l 7 12 q 20 34 69 93 q 119 152 187 231 q 192 237 197 243 q 281 341 363 438 q 444 536 491 604 q 534 669 551 702 l 555 708 l 554 711 q 554 715 557 718 q 558 718 559 719 q 560 719 561 719 q 561 719 562 719 q 563 720 566 720 l 568 720 q 570 719 572 717 q 573 715 573 713 l 572 710 q 546 646 487 553 q 427 460 354 360 q 281 260 216 174 q 212 170 209 166 q 119 46 92 4 q 89 0 85 0 z"},"[":{"x_min":0,"x_max":703,"ha":703,"o":"m 212 -109 q 165 -109 118 -108 q 71 -108 24 -108 q 21 -108 19 -106 q 17 -104 17 -102 q 17 -101 17 -99 q 17 -98 18 -97 q 23 -86 30 -74 q 108 70 238 303 q 367 536 451 663 q 456 669 469 692 q 480 710 492 730 q 504 750 513 765 q 523 779 526 779 l 693 779 q 697 779 698 777 q 700 774 700 771 q 700 765 697 759 q 693 752 690 752 l 526 752 q 472 623 364 403 q 289 250 219 115 q 150 -20 115 -83 l 215 -83 q 219 -83 220 -85 q 221 -87 221 -90 q 221 -94 220 -98 q 218 -103 216 -106 q 214 -109 212 -109 z"},"6":{"x_min":0,"x_max":538,"ha":538,"o":"m 186 -5 q 164 -5 143 0 q 112 6 89 19 q 30 53 14 118 q 6 148 6 182 q 6 220 15 261 q 34 346 81 431 q 135 528 195 590 q 256 651 315 682 q 388 719 451 719 q 485 719 511 709 q 547 694 561 664 q 567 650 567 634 q 567 600 535 559 q 533 556 529 556 q 527 556 525 558 q 522 560 522 563 q 522 565 524 567 q 553 605 553 635 q 553 647 548 658 q 537 683 505 695 q 484 704 463 704 q 419 704 375 673 q 331 643 291 595 q 251 547 219 493 q 186 439 162 390 q 138 341 127 308 q 115 273 106 240 q 150 306 194 343 q 259 399 319 399 q 375 399 407 352 q 431 315 431 259 q 431 228 422 191 q 410 138 383 100 q 356 61 321 37 q 258 -5 186 -5 z m 182 19 q 208 19 235 36 q 261 53 282 78 q 303 103 315 130 q 348 200 348 271 q 348 311 335 340 q 317 377 287 377 q 261 377 232 355 q 180 316 128 244 q 107 215 99 201 q 96 175 95 150 q 95 96 117 59 q 144 19 182 19 z"},"r":{"x_min":0,"x_max":327,"ha":327,"o":"m 73 0 q 44 0 30 23 q 19 41 19 65 q 19 93 34 122 l 92 218 l 61 216 q 26 213 17 213 l 1 214 q -1 215 -3 217 q -5 219 -5 222 l 60 310 q 64 310 66 306 q 68 302 71 299 q 92 276 131 276 q 158 276 184 288 q 209 300 227 328 l 230 329 q 236 329 236 322 q 236 316 229 303 q 220 283 168 195 q 137 141 110 93 q 83 45 83 36 q 83 28 93 28 l 96 28 q 115 28 153 56 l 154 56 q 228 118 298 196 l 306 205 q 332 234 337 234 q 339 234 342 232 q 344 230 344 227 q 344 225 342 222 l 308 187 q 238 108 163 45 q 163 44 162 44 q 162 44 162 44 q 162 43 161 43 q 120 10 85 1 q 79 0 73 0 z"},"2":{"x_min":0,"x_max":647,"ha":647,"o":"m 421 -15 q 390 -15 360 -6 q 329 3 298 15 q 253 34 206 42 q 175 47 149 47 q 119 47 95 42 q 43 30 22 3 q 17 -2 13 -2 q 9 -2 7 0 q 5 3 5 6 l 6 11 q 14 30 22 48 q 27 62 35 75 q 61 123 104 164 q 168 226 338 311 q 412 350 459 397 q 507 444 529 493 q 549 536 549 574 l 548 587 q 544 630 516 659 q 481 694 413 699 l 396 700 q 355 700 325 687 q 295 675 275 654 q 255 634 244 609 q 231 578 229 547 l 229 534 q 229 511 234 492 q 240 474 250 463 q 259 453 272 453 l 275 453 q 277 453 279 451 q 281 449 282 446 q 282 443 280 441 q 278 438 275 438 l 272 438 q 254 438 241 452 q 228 465 221 487 q 214 508 214 533 q 214 541 215 548 q 217 582 231 615 q 244 642 265 665 q 287 687 320 701 q 352 714 396 714 l 414 714 q 462 711 506 697 q 549 683 584 649 q 623 609 633 558 q 636 542 636 524 q 636 488 620 450 q 603 408 564 370 q 526 331 464 298 q 367 250 290 218 q 280 214 271 210 l 267 208 q 187 176 132 145 q 77 114 48 67 q 46 65 45 62 q 39 51 34 40 q 54 62 81 85 q 108 108 142 125 q 175 142 211 142 q 222 142 232 140 q 266 134 296 116 q 325 99 353 77 q 381 55 409 39 q 437 22 466 22 q 488 22 511 34 q 534 46 560 76 q 562 78 565 78 q 568 78 570 77 q 572 74 572 71 q 572 69 570 66 q 531 21 494 3 q 457 -15 421 -15 z"},"{":{"x_min":0,"x_max":308,"ha":308,"o":"m 69 -95 l 60 -95 q 8 -91 8 -37 q 8 -4 23 39 q 38 82 57 128 l 58 132 q 76 174 89 212 q 103 250 103 276 q 103 282 102 287 q 100 311 72 313 q 58 313 53 312 q 45 312 44 319 q 44 329 51 329 l 61 328 l 72 328 q 130 334 181 429 q 203 471 224 519 q 247 572 272 620 q 297 668 330 700 q 367 736 416 736 q 423 736 423 729 q 423 726 421 724 q 419 722 416 722 q 373 722 343 689 q 315 659 295 612 q 275 565 258 513 q 237 446 211 392 q 185 338 143 319 q 155 310 156 286 q 156 258 138 218 q 120 177 94 126 q 66 73 47 28 q 27 -17 27 -48 q 27 -76 60 -80 l 64 -80 l 64 -81 l 69 -81 q 76 -81 76 -87 q 76 -94 69 -95 z"},"9":{"x_min":0,"x_max":571,"ha":571,"o":"m 282 337 q 308 337 338 359 q 367 381 394 412 q 421 442 442 471 q 462 499 470 514 q 473 532 474 549 l 475 566 q 475 619 453 655 q 438 676 422 686 q 405 695 388 695 q 361 695 335 678 q 309 661 288 636 q 267 611 254 584 q 229 528 223 470 q 221 457 221 443 q 221 403 234 374 q 244 354 256 346 q 268 337 282 337 z m 118 -5 q 84 -5 59 5 q 22 20 9 50 q 3 64 3 80 q 3 114 34 156 q 37 158 40 158 q 42 158 44 157 q 47 154 47 151 q 47 149 45 147 q 17 109 17 79 q 17 66 22 56 q 33 31 64 19 q 85 10 106 10 q 150 10 194 41 q 238 71 278 119 q 318 167 351 221 q 384 275 407 324 q 431 373 442 406 q 455 441 463 475 q 419 409 375 371 q 332 334 292 322 q 270 315 250 315 q 233 315 217 320 q 183 332 163 362 q 139 398 139 455 q 139 486 147 522 q 160 576 186 614 q 213 653 249 677 q 286 702 326 712 l 327 712 q 355 719 383 719 q 405 719 427 714 q 458 708 480 695 q 539 661 556 596 q 563 566 563 533 q 563 495 554 453 q 536 368 489 283 q 435 186 374 124 q 314 63 255 32 q 195 2 145 -3 q 131 -5 118 -5 z"}," ":{"x_min":0,"x_max":248,"ha":248,"o":""},"I":{"x_min":0,"x_max":967,"ha":967,"o":"m 783 349 q 812 396 838 442 q 885 526 930 593 q 974 660 1021 693 q 896 673 822 635 q 748 597 715 551 q 683 505 682 463 q 682 429 696 402 q 724 354 783 349 z m 357 -1 l 343 -1 q 258 -1 197 20 q 135 41 94 77 q 54 113 32 160 l 32 160 q 4 223 4 292 q 4 317 8 342 q 22 439 77 524 q 108 574 152 613 q 195 651 248 674 q 301 696 361 696 q 395 696 430 688 q 527 664 580 595 q 638 521 644 422 l 645 396 q 645 312 607 231 q 583 181 543 139 q 503 97 448 70 l 445 70 q 441 70 438 74 l 438 77 q 438 81 441 84 q 495 109 533 149 q 571 189 595 238 q 631 316 631 396 l 630 421 q 624 515 569 586 q 519 651 427 674 q 394 681 362 681 q 304 681 253 660 q 203 638 161 601 q 119 564 88 517 q 36 435 22 340 q 19 315 19 291 q 19 225 45 167 l 45 166 q 65 122 104 87 q 143 53 202 33 q 261 13 343 13 l 357 13 q 453 17 529 63 q 604 108 665 180 q 725 252 774 334 q 713 344 684 395 q 667 425 667 460 l 667 463 q 668 500 691 540 q 724 594 793 633 q 863 673 943 695 q 1022 717 1083 717 l 1102 716 q 1109 716 1116 714 q 1121 712 1121 707 l 1121 706 q 1121 704 1118 702 q 1116 700 1114 700 l 1112 700 q 1105 702 1098 702 l 1096 702 q 1059 695 1019 632 q 979 568 932 476 l 925 462 q 902 417 877 371 q 879 372 881 373 q 891 378 900 384 q 929 403 961 439 q 993 475 1028 533 q 1030 537 1034 537 q 1036 537 1038 536 q 1041 534 1041 530 q 1041 528 1040 526 q 1005 466 971 429 q 938 392 908 372 q 886 357 865 350 q 831 288 792 232 q 754 176 709 131 l 709 130 q 668 94 627 71 q 586 48 548 35 q 506 20 454 10 q 403 0 357 -1 z"},"H":{"x_min":0,"x_max":1159,"ha":1159,"o":"m 356 13 q 452 17 528 63 q 604 109 665 182 q 725 254 775 337 q 704 339 641 347 q 633 288 606 231 q 582 181 542 139 q 502 97 446 70 l 443 70 q 438 70 436 77 q 436 81 440 84 q 494 109 532 149 q 570 189 593 238 q 619 291 626 349 l 571 355 q 520 362 472 364 q 428 311 373 311 q 332 311 306 335 q 273 320 243 293 q 241 292 238 292 q 235 292 233 294 q 231 296 231 299 q 231 302 233 304 q 264 331 296 347 q 271 381 271 436 q 271 476 285 520 q 306 584 357 639 q 379 662 404 678 q 381 681 360 681 q 303 681 252 660 q 201 638 160 601 q 118 564 87 517 q 35 435 21 340 q 18 315 18 290 q 18 225 43 167 l 43 166 q 64 122 103 87 q 142 53 201 33 q 260 13 342 13 z m 373 325 q 416 325 453 364 l 447 364 q 375 364 320 342 q 340 325 373 325 z m 309 353 q 369 379 446 379 l 465 379 q 467 382 470 385 q 504 433 536 515 q 538 520 542 520 q 544 519 546 519 q 547 518 549 516 q 550 514 550 512 l 549 510 q 538 480 521 445 q 505 409 483 378 q 527 375 574 370 l 596 367 q 611 365 628 363 q 629 380 629 397 l 628 421 q 623 515 567 586 q 517 651 426 674 l 424 674 q 394 656 368 629 q 318 577 299 515 q 285 474 285 436 q 285 415 290 396 q 295 370 309 353 z m 356 -1 l 342 -1 q 257 -1 196 20 q 134 41 93 77 q 52 113 30 160 l 30 160 q 3 222 3 290 q 3 316 7 342 q 21 439 75 524 q 107 574 150 613 q 194 651 246 673 q 299 696 359 696 q 389 696 421 689 q 506 738 628 738 q 689 738 751 729 q 812 720 870 709 q 950 693 1013 688 q 1054 718 1090 718 q 1119 718 1122 702 q 1122 692 1104 684 q 1087 675 1049 673 q 1022 643 993 591 q 963 540 931 476 q 900 416 867 354 q 945 360 1033 385 q 1119 544 1200 638 q 1252 696 1310 722 q 1368 749 1412 749 q 1457 749 1478 726 q 1491 711 1491 691 q 1491 679 1486 665 q 1475 628 1421 578 q 1368 528 1263 467 q 1181 421 1107 395 q 1066 321 1035 251 q 977 117 977 52 q 977 17 995 17 l 995 17 l 999 16 l 999 16 q 1000 16 1000 15 q 1000 15 1001 14 q 1001 14 1001 13 l 1001 6 q 1001 6 1001 6 q 1000 6 1000 6 q 1000 5 1000 5 q 1000 5 999 5 q 999 4 999 4 q 999 4 998 4 q 998 3 998 3 q 997 3 997 2 q 927 2 927 83 q 929 143 960 228 q 986 295 1023 367 q 936 344 858 339 q 783 206 708 131 l 707 130 q 634 65 546 35 q 504 20 453 10 q 401 0 356 -1 z m 1066 689 q 1086 692 1094 695 q 1103 699 1103 701 q 1103 702 1098 703 q 1084 703 1066 689 z m 783 352 q 812 400 839 446 q 879 518 918 578 q 956 637 997 675 q 938 681 867 695 q 811 706 750 714 q 689 723 628 723 q 520 723 442 684 q 530 659 579 595 q 636 521 643 422 l 644 397 q 644 379 642 361 q 708 353 783 352 z m 1118 414 q 1184 440 1255 480 q 1358 540 1410 587 q 1462 635 1473 669 l 1473 669 q 1477 681 1477 690 q 1477 706 1467 716 q 1453 731 1434 731 q 1404 731 1366 703 q 1328 675 1288 633 q 1248 591 1213 546 q 1177 501 1152 465 q 1127 429 1118 414 z"},"4":{"x_min":0,"x_max":543,"ha":543,"o":"m 250 0 l 178 0 q 175 0 173 2 q 171 4 171 7 l 171 8 q 171 10 172 12 q 205 72 300 223 q 274 230 248 241 q 246 242 243 243 q 208 259 170 267 q 145 271 123 271 q 100 271 82 267 q 41 255 24 233 q 22 231 20 229 q 18 228 15 228 l 13 227 l 12 228 q 9 228 8 230 q 6 232 6 234 l 6 236 q 23 301 58 337 q 92 374 138 407 q 190 442 251 504 q 313 566 378 687 q 379 688 380 689 q 381 690 382 691 q 399 697 415 699 l 416 699 q 430 700 445 706 q 460 712 480 731 q 482 734 485 734 q 488 734 490 731 q 492 729 492 726 l 493 722 l 492 719 q 447 634 395 577 q 344 520 292 481 q 239 442 191 413 q 188 411 186 409 q 137 378 98 347 q 60 316 39 274 q 55 293 76 311 q 97 330 122 342 q 146 354 174 354 q 183 354 191 353 q 218 348 242 332 q 266 316 289 297 q 294 293 299 290 q 314 278 328 268 q 391 367 452 457 q 496 522 513 555 q 514 557 515 559 q 518 564 521 569 q 524 573 529 573 l 530 573 q 535 571 535 566 l 534 563 q 489 449 420 312 l 414 300 q 402 276 390 252 q 419 256 453 297 q 455 299 458 299 q 460 299 463 298 q 464 297 465 295 q 465 293 465 292 q 465 290 465 289 q 464 288 463 286 q 462 286 461 285 q 416 231 375 221 q 295 69 257 4 q 254 0 250 0 z"},"~":{"x_min":0,"x_max":495,"ha":495,"o":"m 93 204 q 89 204 88 207 q 86 209 86 211 q 86 215 89 217 q 101 226 123 240 q 185 278 224 278 q 241 277 251 271 q 262 266 269 260 q 276 254 283 250 q 291 246 302 246 q 327 246 374 273 q 375 275 377 275 q 381 275 383 272 q 385 270 385 268 q 385 264 382 262 q 316 214 282 214 q 270 214 261 218 q 252 222 244 227 q 231 235 212 238 l 199 239 q 178 239 156 232 q 121 223 100 208 q 99 206 98 206 q 98 206 97 205 q 95 204 93 204 z"},"D":{"x_min":0,"x_max":946,"ha":946,"o":"m 540 -7 q 499 -7 448 3 q 398 13 348 25 q 310 35 274 42 q 192 -1 116 -1 q 77 -1 36 11 q 19 17 11 25 q 4 34 4 45 q 4 67 26 75 q 48 83 83 83 q 118 83 157 78 q 183 74 230 65 q 290 105 348 167 q 300 201 276 256 q 251 311 251 369 q 251 441 286 504 q 321 566 378 614 q 435 661 505 688 q 576 715 647 715 q 695 715 739 702 l 740 701 q 768 692 792 679 q 834 710 884 726 q 934 743 977 743 q 1004 743 1028 734 q 1052 726 1068 707 q 1083 688 1083 653 q 1083 648 1082 645 q 1081 642 1076 642 q 1069 644 1069 650 q 1069 679 1058 696 q 1046 713 1027 720 q 1008 728 984 728 q 944 728 905 706 q 866 683 835 648 q 881 607 902 551 q 923 494 923 431 q 923 371 906 309 q 888 247 854 190 q 821 134 774 90 q 727 45 668 19 q 609 -7 540 -7 z m 461 25 q 635 25 749 187 q 797 257 821 334 q 844 412 844 480 q 844 564 812 621 q 766 565 707 486 q 646 405 575 317 q 504 229 425 154 q 435 153 445 153 q 515 153 594 208 q 596 209 598 209 q 601 209 603 208 q 605 206 605 203 q 605 199 602 197 q 561 166 520 152 q 480 139 445 139 q 428 139 411 142 q 354 89 293 53 l 354 39 q 410 25 461 25 z m 358 178 q 453 281 544 403 q 604 482 662 552 q 720 621 774 666 q 748 687 714 694 q 681 701 647 701 q 575 701 507 674 q 439 647 385 601 q 331 555 298 495 q 266 435 266 368 q 266 315 289 262 q 312 209 358 178 z m 92 17 q 149 17 211 54 q 132 69 82 69 q 19 69 19 44 q 19 39 23 34 q 27 29 39 26 q 65 17 92 17 z"},"^":{"x_min":0,"x_max":324,"ha":324,"o":"m 229 599 q 223 599 218 604 l 218 605 q 212 615 205 632 q 198 649 192 665 q 191 666 191 666 l 185 682 l 162 664 q 141 647 119 630 q 96 613 83 604 q 79 602 76 601 q 74 600 70 600 q 67 600 63 602 q 60 603 57 607 q 57 609 56 610 q 55 612 55 615 q 55 624 67 635 l 67 636 q 103 656 142 677 q 171 693 186 700 l 188 701 q 191 701 194 697 q 203 690 217 676 q 237 654 254 633 l 255 632 q 257 628 257 625 q 257 617 251 612 q 249 606 243 604 q 239 601 234 600 l 234 600 z"},"0":{"x_min":0,"x_max":564,"ha":564,"o":"m 179 16 q 209 16 241 38 q 273 59 300 88 q 327 117 343 142 q 416 251 446 386 q 463 460 463 526 q 463 575 453 615 q 440 661 421 680 q 403 699 381 699 q 354 699 326 677 q 298 656 272 626 q 247 596 228 567 q 146 445 110 300 q 93 228 93 167 q 93 110 110 69 q 124 41 142 28 q 159 16 179 16 z m 216 -2 q 204 -2 191 0 l 191 0 q 186 0 181 1 q 159 5 137 16 q 87 41 55 91 q 9 166 9 271 q 9 312 17 358 q 47 509 139 609 q 185 659 238 687 q 291 715 345 715 q 347 715 354 714 q 362 713 370 713 q 377 712 380 711 q 397 708 412 702 l 413 702 q 477 676 513 610 q 553 539 553 442 q 553 426 552 410 q 550 383 544 355 q 514 204 422 103 q 377 54 324 26 q 271 -2 216 -2 z"},"F":{"x_min":0,"x_max":997,"ha":997,"o":"m 556 333 q 600 333 632 366 q 634 381 634 396 q 634 506 571 586 q 557 604 539 621 q 501 574 484 523 q 474 492 473 469 q 472 446 472 441 q 472 348 542 334 q 549 333 556 333 z m 958 361 l 959 362 q 981 379 981 392 q 974 390 960 366 z m 360 -1 l 352 -1 q 225 -1 147 42 q 68 86 35 160 q 7 222 7 291 q 7 316 11 342 q 24 439 80 524 q 137 614 213 655 q 290 695 362 695 q 446 695 510 658 q 521 670 532 683 q 601 750 666 762 q 731 773 775 773 q 874 773 1042 727 q 1104 710 1157 700 q 1192 695 1220 695 q 1271 695 1297 713 q 1299 714 1301 714 q 1304 714 1306 712 q 1308 709 1308 708 q 1308 704 1305 702 q 1280 684 1256 682 q 1231 681 1218 681 q 1169 681 1053 703 q 907 731 819 731 q 760 731 704 720 q 612 700 548 631 q 567 614 583 595 q 648 511 648 398 l 647 382 l 656 393 q 690 440 722 523 l 731 527 q 735 525 735 521 q 735 517 734 516 q 701 431 667 384 q 657 371 646 359 q 640 292 610 231 q 558 122 450 70 l 448 70 q 447 70 445 71 q 442 71 441 73 q 440 75 440 77 q 440 82 444 84 q 547 133 597 238 q 622 289 630 345 q 599 319 557 319 q 548 319 539 320 q 491 330 471 373 q 452 417 452 469 q 452 521 462 559 q 473 603 502 646 q 440 681 362 681 q 293 681 234 649 q 146 603 91 517 q 38 435 25 340 q 21 314 21 290 q 21 225 48 167 q 79 97 154 55 q 229 13 352 13 q 453 13 536 64 q 613 110 674 183 q 734 255 783 337 q 715 336 669 303 q 667 302 666 302 q 662 302 660 304 q 658 307 658 309 q 658 312 661 314 q 712 352 788 352 l 792 352 l 834 422 q 874 492 913 550 q 951 607 991 639 q 1030 672 1074 672 l 1082 672 q 1101 672 1106 665 q 1107 663 1107 662 q 1107 657 1105 656 q 1102 654 1101 654 l 1098 654 q 1089 657 1080 657 q 1044 652 1007 594 q 969 536 926 450 l 871 348 l 890 348 q 917 348 938 353 q 943 364 948 373 q 967 406 982 406 q 996 406 996 391 q 996 371 967 350 q 959 345 949 341 q 941 319 938 302 q 938 295 932 295 q 924 295 924 302 q 924 312 933 336 q 912 333 888 333 q 875 333 863 334 q 787 202 712 131 q 629 60 550 35 q 508 20 457 10 q 405 0 360 -1 z"},"`":{"x_min":0,"x_max":307,"ha":307,"o":"m 206 597 l 204 597 q 184 606 130 640 l 97 662 l 96 663 q 87 671 87 680 l 87 683 q 87 687 90 690 l 91 691 q 96 697 104 697 q 109 697 116 694 q 131 682 210 610 q 213 607 213 604 l 213 601 q 210 597 206 597 z"},"k":{"x_min":0,"x_max":380,"ha":380,"o":"m 113 317 q 223 433 279 515 q 356 628 356 676 q 356 694 343 694 q 317 694 268 611 q 201 501 122 334 z m 64 201 q 153 201 205 240 q 221 251 238 270 q 256 288 256 301 q 256 310 239 310 q 172 310 70 221 l 63 215 l 57 201 z m 127 0 q 100 0 86 23 q 75 41 75 65 q 75 94 89 121 q 104 148 104 160 q 104 170 97 172 q 86 177 69 177 q 62 177 57 178 q 52 179 45 179 l 42 172 q -40 0 -47 0 l -119 0 q -121 0 -122 1 q -123 2 -124 2 q -127 4 -127 8 q -127 11 -51 147 q 118 446 223 604 q 273 676 312 698 l 313 699 q 329 709 344 709 q 359 709 366 695 q 370 688 370 676 q 370 620 283 497 q 219 405 93 274 l 83 254 q 182 337 254 337 q 293 334 301 305 q 303 300 303 293 q 303 271 281 246 q 250 209 167 188 q 189 178 189 154 q 189 127 163 89 l 142 55 q 138 46 138 39 l 138 35 q 139 28 148 28 q 202 28 341 183 l 387 232 q 390 234 392 234 q 395 234 397 232 q 399 230 399 227 q 399 225 397 222 q 378 203 351 172 q 271 85 213 41 q 161 0 127 0 z"},"u":{"x_min":0,"x_max":395,"ha":395,"o":"m 142 0 q 126 0 115 6 q 105 13 99 23 q 92 33 90 45 q 88 53 88 60 q 88 62 88 64 q 67 45 40 27 q 14 8 -13 1 q -20 0 -26 0 q -41 0 -51 6 q -62 13 -68 23 q -75 33 -77 45 q -79 55 -79 65 q -79 94 -64 122 l 48 317 q 51 321 54 321 l 126 321 q 130 321 132 319 q 135 316 135 313 q 135 312 134 310 l -12 55 q -16 45 -16 38 l -16 35 q -16 33 -15 32 q -14 31 -13 30 l -8 29 q 9 29 36 46 q 62 63 82 89 q 96 110 103 122 l 215 317 q 218 321 221 321 l 294 321 q 297 321 299 319 q 301 317 301 314 q 301 312 300 310 l 155 55 q 151 46 151 40 l 151 35 q 151 32 155 30 q 157 28 162 28 l 165 28 q 183 28 222 56 l 223 56 q 296 118 367 196 l 376 207 q 389 220 400 232 q 402 234 405 234 q 408 234 410 232 q 413 230 413 227 q 413 225 411 222 l 376 187 q 307 108 231 45 l 230 43 q 188 10 154 1 q 147 0 142 0 z"},"]":{"x_min":0,"x_max":703,"ha":703,"o":"m 504 779 q 551 779 598 778 q 646 778 692 778 q 695 778 697 776 q 699 774 700 771 q 700 771 699 769 q 699 768 699 767 q 693 756 687 744 q 608 600 479 367 q 349 134 265 7 q 261 1 247 -22 q 236 -41 224 -61 q 212 -81 203 -95 q 193 -109 190 -109 l 23 -109 q 20 -109 18 -107 q 17 -104 17 -101 q 17 -95 20 -89 q 23 -83 26 -83 l 190 -83 q 244 47 353 267 q 428 419 497 554 q 566 689 601 752 l 501 752 q 498 752 496 755 q 495 757 495 760 q 495 764 497 768 q 498 773 500 776 q 502 779 504 779 z"},"U":{"x_min":0,"x_max":1086,"ha":1086,"o":"m 768 -3 q 748 -3 726 3 q 682 24 682 89 q 682 183 770 378 l 765 371 q 724 290 680 217 q 547 -1 402 -1 q 361 -1 342 20 q 312 52 312 100 q 312 162 364 268 q 399 339 436 405 q 462 452 487 501 q 546 620 546 686 q 546 718 531 743 q 517 768 482 781 q 448 795 390 795 q 360 795 323 791 q 201 776 111 688 l 92 668 q 20 584 20 495 q 20 449 37 411 q 64 354 113 323 q 155 296 200 296 q 251 296 292 333 q 327 365 348 429 q 351 434 355 434 q 356 434 358 434 q 359 433 361 431 q 362 429 362 427 l 362 425 q 339 355 301 321 q 256 281 201 281 q 151 281 105 311 q 53 344 24 405 q 5 446 5 495 q 5 588 82 677 q 91 688 101 698 q 195 789 322 806 q 361 810 394 810 q 469 810 513 789 q 557 769 576 733 q 595 697 595 651 q 595 593 572 525 q 531 408 449 273 q 412 213 384 161 q 347 91 347 55 q 347 39 354 27 q 371 12 401 12 q 424 12 449 19 q 530 43 598 126 q 647 187 691 265 q 736 343 778 426 q 819 507 859 579 q 941 727 1028 791 q 1030 792 1032 792 q 1035 792 1037 789 q 1039 786 1039 784 q 1039 781 1036 778 q 787 306 752 111 l 750 75 q 750 58 754 40 q 758 22 777 15 q 783 13 791 13 q 818 13 861 36 q 933 72 1002 143 q 1034 174 1060 201 q 1060 202 1061 202 q 1063 205 1066 208 q 1089 233 1093 233 q 1100 233 1100 226 q 1100 223 1073 196 q 1070 191 1012 133 q 941 61 867 23 q 814 -3 768 -3 z"},"o":{"x_min":0,"x_max":419,"ha":419,"o":"m 111 14 q 131 14 154 31 q 176 47 194 69 q 213 91 223 109 q 228 118 232 126 q 218 127 207 133 q 177 146 165 174 q 154 198 154 224 q 154 227 155 231 q 155 234 158 236 q 162 238 167 238 q 171 238 177 237 q 182 235 186 234 q 189 232 189 232 q 183 229 179 218 q 175 207 175 195 q 175 187 178 180 q 194 145 239 140 q 260 190 260 235 q 260 265 250 287 q 234 318 210 318 q 192 318 174 305 q 140 280 109 233 q 73 180 64 123 q 62 108 62 94 q 62 72 68 54 q 83 14 111 14 z m 101 -1 q 82 -1 64 3 q 20 15 -6 48 q -31 82 -31 128 q -31 148 -26 169 q -6 240 52 287 q 79 309 113 323 q 147 336 183 336 q 201 336 219 332 q 219 332 219 332 q 265 320 291 284 q 313 251 313 206 q 313 183 308 166 q 308 160 305 154 q 355 174 424 232 q 426 233 428 233 q 432 233 434 231 q 436 229 436 226 q 436 223 433 221 q 354 155 299 136 q 276 84 230 47 q 170 -1 101 -1 z"},"N":{"x_min":0,"x_max":1268,"ha":1268,"o":"m 357 13 q 475 19 563 85 q 650 151 718 249 q 785 346 840 446 q 881 518 919 578 q 958 637 998 675 q 939 681 869 695 q 812 706 751 714 q 690 723 630 723 q 581 723 533 714 q 486 706 444 684 q 531 659 580 595 q 638 521 644 422 q 645 409 645 395 q 645 312 607 231 q 583 181 543 139 q 503 97 448 70 l 445 70 q 440 70 438 74 l 438 77 q 438 81 441 84 q 495 109 533 149 q 571 189 595 238 q 631 316 631 396 l 630 421 q 624 515 569 586 q 519 651 427 674 l 425 674 q 395 656 369 629 q 320 577 300 515 q 286 474 286 436 q 286 415 291 396 q 297 367 315 348 l 315 348 q 331 331 356 327 q 365 325 374 325 q 404 325 428 342 q 452 359 471 385 q 494 416 510 450 q 526 485 537 515 q 538 517 540 518 q 542 520 544 520 l 546 519 q 549 518 550 516 q 551 514 551 512 l 551 510 q 539 479 522 444 q 505 408 482 376 q 461 347 435 329 q 408 311 374 311 q 364 311 354 312 q 324 317 305 338 l 304 338 q 285 360 277 392 q 272 413 272 437 q 272 476 286 520 q 307 584 358 639 q 381 662 405 678 q 382 681 361 681 q 304 681 253 660 q 203 638 161 601 q 120 564 89 517 q 36 435 22 340 q 19 315 19 291 q 19 225 45 167 l 45 166 q 65 122 104 87 q 143 53 202 33 q 262 13 343 13 z m 1051 688 q 1084 689 1106 702 l 1103 702 q 1092 702 1075 697 q 1058 692 1051 688 z m 955 -13 q 951 -13 949 -7 q 947 -1 947 4 q 947 7 948 9 q 993 99 1009 167 q 1025 235 1025 292 q 1025 323 1022 351 q 1020 380 1016 408 q 1012 436 1009 465 q 1006 493 1006 523 q 1006 557 1011 594 q 1017 630 1030 673 q 1024 673 1019 673 q 978 640 938 580 q 898 520 856 446 l 853 439 q 810 364 761 288 q 713 211 654 147 q 595 83 522 42 q 449 2 357 -1 l 343 -1 q 258 -1 197 20 q 135 41 94 77 q 54 113 32 160 l 32 160 q 5 222 5 290 q 5 316 8 342 q 22 439 76 524 q 108 574 152 613 q 195 651 248 673 q 300 696 360 696 q 391 696 423 689 q 470 716 522 727 q 575 738 629 738 q 691 738 752 729 q 813 720 871 709 q 951 693 1014 688 q 1036 705 1056 711 q 1076 718 1091 718 q 1121 718 1123 702 q 1123 692 1105 684 q 1088 675 1048 673 q 1040 628 1040 590 q 1040 545 1048 506 q 1056 466 1067 428 q 1079 388 1088 346 q 1097 304 1097 255 q 1097 233 1094 210 l 1460 738 q 1496 787 1531 810 q 1566 833 1597 835 l 1605 836 q 1627 836 1646 827 q 1667 815 1680 795 q 1692 774 1692 749 q 1692 729 1684 708 q 1681 703 1677 703 l 1674 704 q 1670 706 1670 710 l 1670 713 q 1678 731 1678 749 q 1678 771 1667 788 q 1658 805 1639 813 q 1624 821 1604 821 l 1598 821 q 1570 819 1538 798 q 1505 776 1472 730 l 960 -9 q 957 -13 955 -13 z"},"+":{"x_min":0,"x_max":495,"ha":495,"o":"m 186 51 l 117 51 q 115 51 113 52 q 112 53 111 53 q 110 53 110 54 q 106 57 106 61 q 107 63 194 217 l 87 217 q 84 217 82 219 q 80 222 80 225 q 80 228 82 230 q 84 232 87 232 l 202 232 q 284 378 288 380 q 290 382 293 382 l 366 383 q 369 383 371 380 q 374 378 374 375 l 373 371 l 293 232 l 404 232 q 406 232 408 230 q 411 228 411 225 q 411 222 408 219 q 406 217 404 217 l 285 217 l 195 56 q 192 52 188 52 z"},"G":{"x_min":0,"x_max":1040,"ha":1040,"o":"m 693 429 q 777 436 848 458 q 920 481 969 535 q 992 560 1006 584 l 1006 585 q 1025 616 1027 642 l 1028 648 q 1028 667 1018 676 q 1008 684 988 684 q 970 684 949 678 q 868 646 801 577 q 734 508 693 429 z m 370 -202 q 397 -201 422 -197 l 436 -195 q 532 -175 600 -118 q 669 -62 719 13 q 769 88 809 162 q 829 199 850 233 q 829 218 805 205 q 780 192 752 184 q 724 176 695 176 q 685 176 676 177 q 623 184 598 216 q 575 248 575 294 l 576 313 q 580 358 601 409 l 546 406 q 565 374 565 338 q 565 300 546 260 q 518 201 463 153 q 408 106 343 84 q 309 74 276 74 q 236 74 200 92 q 164 110 136 152 q 135 154 135 156 q 135 159 138 162 q 140 163 142 163 q 145 163 148 160 q 173 122 207 105 q 240 88 277 88 q 308 88 338 98 q 401 119 454 165 q 506 210 533 267 q 550 303 550 338 q 550 374 529 405 q 448 402 373 389 q 299 377 240 344 q 181 312 147 246 q 145 242 141 242 q 139 242 137 243 q 134 245 134 249 q 134 251 134 252 q 169 320 228 354 q 287 389 361 402 q 436 415 517 419 q 515 420 513 422 q 512 423 511 424 q 502 432 493 438 q 444 468 379 468 q 353 468 325 462 q 276 453 228 425 q 179 397 136 347 q 116 324 97 294 q 32 186 32 74 l 32 67 q 33 1 61 -56 q 89 -112 148 -151 q 186 -175 238 -189 q 290 -202 357 -202 z m 370 -216 l 354 -216 q 286 -216 233 -202 q 180 -188 141 -163 q 79 -124 48 -62 q 20 -3 18 67 l 18 74 q 18 189 85 302 q 104 332 125 357 q 170 408 221 438 q 271 467 323 477 q 352 482 379 482 q 448 482 500 450 q 511 443 520 436 l 521 435 q 529 428 535 419 l 572 422 l 607 423 q 610 430 613 436 q 653 518 722 589 q 791 660 876 694 q 919 711 953 712 l 960 712 q 992 712 1012 700 q 1018 696 1022 692 q 1042 674 1042 648 l 1042 641 q 1039 612 1019 578 l 1019 577 q 1003 551 980 525 q 928 468 851 444 q 775 419 687 414 q 684 409 682 405 q 656 347 653 299 l 653 288 q 653 249 673 224 q 685 210 700 204 q 714 198 730 198 q 748 198 765 204 q 782 209 798 218 q 844 242 876 275 q 889 294 909 315 q 929 335 953 351 q 977 366 1001 366 q 1020 366 1038 355 q 1040 354 1041 352 q 1042 351 1042 349 l 1042 346 q 1041 344 1039 343 q 1037 341 1035 341 l 1032 342 q 1021 347 1009 348 q 981 341 954 295 q 929 252 901 193 q 898 189 896 185 q 863 112 820 39 q 778 -34 722 -85 q 681 -121 640 -144 q 600 -167 561 -181 q 493 -203 439 -209 q 407 -215 370 -216 z"},"q":{"x_min":0,"x_max":415,"ha":415,"o":"m -8 -395 q -18 -395 -26 -392 q -45 -387 -55 -370 q -64 -356 -64 -335 q -64 -310 -49 -273 q -8 -179 63 -40 l 113 56 q 87 28 68 17 q 44 3 21 3 q -11 3 -26 23 q -45 46 -47 84 l -47 94 q -47 127 -36 164 q -22 206 6 243 q 35 280 78 302 q 98 312 125 319 q 153 326 180 326 q 223 326 247 305 q 255 319 257 321 q 260 323 262 323 q 335 323 338 322 q 342 320 342 315 q 338 302 239 144 l 160 15 l 161 16 q 208 29 273 88 q 338 147 400 213 l 418 232 q 420 234 423 234 q 426 234 428 232 q 431 230 431 227 q 431 225 429 222 l 415 208 q 377 167 332 123 q 287 78 243 44 q 199 10 164 1 l 162 1 q 182 -45 182 -105 l 182 -118 q 176 -201 144 -269 q 116 -323 82 -354 q 34 -395 -8 -395 z m -7 -380 q 30 -380 73 -342 q 105 -313 131 -262 q 165 -192 167 -102 q 167 -50 148 -3 q 105 -75 61 -157 q 18 -238 -12 -298 q -42 -357 -43 -362 q -33 -380 -7 -380 z m 37 19 q 44 19 61 29 q 108 61 147 123 q 186 185 216 247 q 229 271 240 292 q 223 310 204 310 q 180 310 156 293 q 132 276 117 259 q 67 204 40 136 q 21 87 21 54 q 21 41 24 31 q 29 19 37 19 z"},"d":{"x_min":0,"x_max":421,"ha":421,"o":"m 307 317 q 416 433 472 515 q 528 597 542 643 q 549 664 549 676 q 549 684 547 688 q 544 694 536 694 q 532 694 527 692 q 503 681 461 611 q 418 541 377 459 q 336 378 314 333 q 310 323 307 317 z m 36 21 q 41 21 46 24 q 51 27 56 32 q 59 33 61 35 q 84 52 96 68 q 108 83 118 103 q 123 112 128 122 l 229 297 q 215 310 199 310 q 185 310 170 302 q 155 293 142 281 q 128 270 119 259 q 68 204 42 136 q 23 87 23 53 q 23 41 26 31 q 30 21 36 21 z m 167 0 q 152 0 141 6 q 130 13 124 23 q 118 33 115 45 q 113 56 113 66 q 90 38 69 22 q 40 3 18 3 l 16 3 q -9 5 -25 23 q -43 46 -45 84 l -46 94 q -46 127 -34 164 q -21 206 8 243 q 36 280 80 302 l 80 302 q 133 327 170 327 l 177 327 q 198 327 213 322 q 228 317 236 310 l 241 317 l 241 318 q 292 405 340 484 q 383 554 417 604 q 467 676 506 698 l 507 699 q 516 704 522 706 q 531 709 538 709 q 553 709 560 695 q 563 688 563 677 q 563 661 556 639 q 541 588 476 497 q 412 405 286 274 l 236 172 q 235 170 233 166 q 225 151 212 125 q 199 99 188 73 q 176 47 176 37 l 176 35 q 177 31 180 30 q 183 28 187 28 l 190 28 q 209 28 248 56 l 248 56 q 321 118 392 196 l 425 232 q 428 234 431 234 q 433 234 436 232 q 438 230 438 227 q 438 225 436 222 l 402 187 q 332 108 257 45 l 255 43 q 213 10 180 1 q 173 0 167 0 z"},"1":{"x_min":0,"x_max":370,"ha":370,"o":"m 86 -4 l 14 -4 q 8 -4 7 2 l 7 3 q 7 5 8 7 q 26 40 83 142 q 141 244 212 365 q 295 505 357 599 q 393 652 413 686 q 383 663 304 594 q 234 534 118 425 q 116 423 113 423 q 110 423 108 426 q 106 428 106 431 q 106 434 108 436 q 225 544 294 605 q 416 709 425 713 q 426 714 428 714 q 429 714 429 714 q 431 715 433 715 l 436 715 q 438 714 439 712 q 440 710 440 708 l 439 706 q 391 583 298 396 q 233 263 175 151 q 117 40 93 -1 q 90 -4 86 -4 z"},"5":{"x_min":0,"x_max":654,"ha":654,"o":"m 188 -5 q 169 -5 157 -3 q 145 -1 132 2 l 126 3 q 70 22 39 67 q 7 112 7 174 q 7 210 19 250 q 35 304 71 353 q 74 356 78 356 q 80 356 81 355 q 84 352 84 349 q 84 347 83 345 q 66 321 53 297 q 41 272 33 246 q 21 208 21 174 q 21 117 51 75 q 79 34 130 17 l 135 16 q 154 12 172 12 q 212 12 246 29 q 311 63 354 144 q 396 226 401 314 l 401 333 q 401 413 367 458 q 335 501 278 501 q 254 501 225 493 l 225 492 q 170 473 125 439 q 122 435 119 435 q 117 435 115 436 q 111 438 111 442 q 111 444 246 702 q 254 719 275 726 q 295 733 322 733 q 362 733 406 719 q 451 706 480 683 q 502 665 524 650 q 546 636 570 636 q 605 636 642 680 q 645 685 649 685 q 652 685 654 683 q 656 681 656 677 q 656 675 656 674 q 655 673 654 672 q 653 671 652 670 q 621 632 591 617 q 562 602 534 602 q 508 602 484 610 q 459 618 435 628 q 370 656 315 656 q 292 656 272 651 q 240 643 222 626 l 139 466 q 177 490 221 506 q 273 525 326 525 q 420 525 475 456 q 500 422 512 369 q 517 348 517 325 l 517 309 q 516 279 505 246 q 470 139 381 68 q 337 34 288 14 q 238 -5 188 -5 z"}}}
